<svg width="608" height="464" viewBox="0 0 608 464" fill="none" xmlns="http://www.w3.org/2000/svg">
<path d="M554.646 457.329C554.646 459.912 472.908 461.999 372.196 461.999C271.483 461.999 189.746 459.912 189.746 457.329C189.746 454.745 271.483 452.672 372.196 452.672C472.908 452.672 554.646 454.76 554.646 457.329Z" fill="#2E353A"/>
<path d="M410.292 24.4545H238.861C233.525 24.4545 229.199 28.7806 229.199 34.1171V101.127C229.199 106.464 233.525 110.79 238.861 110.79H410.292C415.628 110.79 419.954 106.464 419.954 101.127V34.1171C419.954 28.7806 415.628 24.4545 410.292 24.4545Z" fill="#BFE5F2"/>
<path d="M229.199 95.6101V126.773L246.583 106.761" fill="#BFE5F2"/>
<path d="M410.306 24.4545H238.817C237.549 24.4545 236.293 24.7045 235.122 25.1903C233.95 25.6761 232.886 26.388 231.99 27.2855C231.094 28.1829 230.384 29.2482 229.9 30.4205C229.416 31.5927 229.168 32.8488 229.169 34.1171V126.773L243.065 110.79H410.306C411.574 110.79 412.83 110.54 414.002 110.054C415.173 109.568 416.237 108.856 417.133 107.959C418.029 107.062 418.74 105.996 419.224 104.824C419.708 103.652 419.956 102.396 419.954 101.127V34.1171C419.956 32.8488 419.708 31.5927 419.224 30.4205C418.74 29.2482 418.029 28.1829 417.133 27.2855C416.237 26.388 415.173 25.6761 414.002 25.1903C412.83 24.7045 411.574 24.4545 410.306 24.4545Z" fill="#BFE5F2"/>
<path opacity="0.1" d="M410.306 24.4545H238.817C237.549 24.4545 236.293 24.7045 235.122 25.1903C233.95 25.6761 232.886 26.388 231.99 27.2855C231.094 28.1829 230.384 29.2482 229.9 30.4205C229.416 31.5927 229.168 32.8488 229.169 34.1171V126.773L243.065 110.79H410.306C411.574 110.79 412.83 110.54 414.002 110.054C415.173 109.568 416.237 108.856 417.133 107.959C418.029 107.062 418.74 105.996 419.224 104.824C419.708 103.652 419.956 102.396 419.954 101.127V34.1171C419.956 32.8488 419.708 31.5927 419.224 30.4205C418.74 29.2482 418.029 28.1829 417.133 27.2855C416.237 26.388 415.173 25.6761 414.002 25.1903C412.83 24.7045 411.574 24.4545 410.306 24.4545Z" fill="#BFE5F2"/>
<path d="M376.02 71.8186H252.844C251.93 71.8186 251.054 71.4556 250.408 70.8096C249.762 70.1636 249.399 69.2875 249.399 68.3739C249.403 67.4628 249.768 66.5904 250.413 65.9476C251.059 65.3047 251.933 64.9438 252.844 64.9438H376.02C376.931 64.9438 377.805 65.3047 378.45 65.9476C379.096 66.5904 379.461 67.4628 379.465 68.3739C379.465 68.8263 379.375 69.2742 379.202 69.6921C379.029 70.11 378.775 70.4898 378.456 70.8096C378.136 71.1295 377.756 71.3832 377.338 71.5564C376.92 71.7295 376.472 71.8186 376.02 71.8186Z" fill="white"/>
<path d="M376.02 87.6406H252.844C252.392 87.6406 251.944 87.5515 251.526 87.3784C251.108 87.2053 250.728 86.9516 250.408 86.6317C250.088 86.3119 249.835 85.9321 249.662 85.5142C249.489 85.0963 249.399 84.6483 249.399 84.196C249.403 83.2849 249.768 82.4125 250.413 81.7697C251.059 81.1268 251.933 80.7659 252.844 80.7659H376.02C376.931 80.7659 377.805 81.1268 378.45 81.7697C379.096 82.4125 379.461 83.2849 379.465 84.196C379.465 84.6483 379.375 85.0963 379.202 85.5142C379.029 85.9321 378.775 86.3119 378.456 86.6317C378.136 86.9516 377.756 87.2053 377.338 87.3784C376.92 87.5515 376.472 87.6406 376.02 87.6406Z" fill="white"/>
<path d="M259.719 55.9965C266.555 55.9965 272.096 50.4549 272.096 43.6191C272.096 36.7832 266.555 31.2416 259.719 31.2416C252.883 31.2416 247.341 36.7832 247.341 43.6191C247.341 50.4549 252.883 55.9965 259.719 55.9965Z" fill="white"/>
<path d="M410.292 141.296H238.861C233.525 141.296 229.199 145.622 229.199 150.958V217.968C229.199 223.305 233.525 227.631 238.861 227.631H410.292C415.628 227.631 419.954 223.305 419.954 217.968V150.958C419.954 145.622 415.628 141.296 410.292 141.296Z" fill="#BFE5F2"/>
<path d="M229.199 212.437V243.614L246.583 223.588" fill="#BFE5F2"/>
<path d="M410.306 141.296H238.817C236.259 141.296 233.805 142.312 231.995 144.121C230.186 145.931 229.169 148.385 229.169 150.944V243.614L243.065 227.558H410.306C412.865 227.558 415.319 226.542 417.128 224.732C418.937 222.923 419.954 220.469 419.954 217.91V150.944C419.954 148.385 418.937 145.931 417.128 144.121C415.319 142.312 412.865 141.296 410.306 141.296Z" fill="#BFE5F2"/>
<path opacity="0.1" d="M410.306 141.296H238.817C236.259 141.296 233.805 142.312 231.995 144.121C230.186 145.931 229.169 148.385 229.169 150.944V243.614L243.065 227.558H410.306C412.865 227.558 415.319 226.542 417.128 224.732C418.937 222.923 419.954 220.469 419.954 217.91V150.944C419.954 148.385 418.937 145.931 417.128 144.121C415.319 142.312 412.865 141.296 410.306 141.296Z" fill="#BFE5F2"/>
<path d="M376.02 188.645H252.844C251.933 188.645 251.059 188.284 250.413 187.641C249.768 186.998 249.403 186.126 249.399 185.215C249.399 184.301 249.762 183.425 250.408 182.779C251.054 182.133 251.93 181.77 252.844 181.77H376.02C376.472 181.77 376.92 181.859 377.338 182.033C377.756 182.206 378.136 182.459 378.456 182.779C378.775 183.099 379.029 183.479 379.202 183.897C379.375 184.315 379.465 184.763 379.465 185.215C379.461 186.126 379.096 186.998 378.45 187.641C377.805 188.284 376.931 188.645 376.02 188.645Z" fill="white"/>
<path d="M376.02 204.467H252.844C251.933 204.467 251.059 204.106 250.413 203.463C249.768 202.821 249.403 201.948 249.399 201.037C249.399 200.124 249.762 199.247 250.408 198.601C251.054 197.955 251.93 197.592 252.844 197.592H376.02C376.472 197.592 376.92 197.682 377.338 197.855C377.756 198.028 378.136 198.282 378.456 198.601C378.775 198.921 379.029 199.301 379.202 199.719C379.375 200.137 379.465 200.585 379.465 201.037C379.461 201.948 379.096 202.821 378.45 203.463C377.805 204.106 376.931 204.467 376.02 204.467Z" fill="white"/>
<path d="M259.719 172.823C266.555 172.823 272.096 167.281 272.096 160.446C272.096 153.61 266.555 148.068 259.719 148.068C252.883 148.068 247.341 153.61 247.341 160.446C247.341 167.281 252.883 172.823 259.719 172.823Z" fill="white"/>
<path d="M96.7252 312.361C96.5938 312.361 96.01 303.209 96.0391 302.625C96.3749 295.867 101.016 282.994 108.358 281.038C109.584 280.745 110.857 280.714 112.096 280.946C113.334 281.179 114.51 281.67 115.545 282.388C116.581 283.105 117.454 284.033 118.107 285.111C118.76 286.189 119.178 287.392 119.334 288.642C120.181 293.926 116.736 299.56 113.248 303.238C109.132 307.5 96.7252 312.361 96.7252 312.361Z" fill="#2E353A"/>
<path d="M87.1502 277.097C87.0189 277.097 87.8216 267.96 87.9384 267.376C89.3104 260.749 95.8494 248.722 103.381 247.905C104.637 247.802 105.901 247.965 107.09 248.383C108.279 248.8 109.367 249.464 110.282 250.33C111.198 251.196 111.921 252.245 112.404 253.409C112.887 254.573 113.12 255.826 113.087 257.086C113.087 262.443 108.869 267.493 104.87 270.573C100.155 274.192 87.1502 277.097 87.1502 277.097Z" fill="#2E353A"/>
<path d="M84.7271 235.484C84.5958 235.484 85.4132 226.347 85.5299 225.763C86.8874 219.136 93.4264 207.109 100.973 206.292C102.228 206.189 103.491 206.351 104.679 206.769C105.868 207.187 106.955 207.851 107.869 208.717C108.784 209.584 109.505 210.633 109.987 211.797C110.468 212.961 110.699 214.213 110.664 215.473C110.664 220.829 106.461 225.865 102.447 228.959C97.7322 232.579 84.7417 235.484 84.7271 235.484Z" fill="#2E353A"/>
<path d="M80.5382 196.323C80.4068 196.323 81.2242 187.171 81.341 186.602C82.6984 179.96 89.2374 167.948 96.7835 167.116C98.0398 167.015 99.3031 167.18 100.491 167.6C101.68 168.019 102.766 168.684 103.681 169.552C104.595 170.419 105.316 171.469 105.798 172.634C106.279 173.799 106.51 175.052 106.475 176.311C106.475 181.654 102.272 186.704 98.2577 189.784C93.5432 193.403 80.5528 196.323 80.5382 196.323Z" fill="#2E353A"/>
<path d="M68.0439 164.897C67.9272 164.897 66.2924 155.892 66.2486 155.308C65.8108 148.55 68.9489 135.224 75.9988 132.45C77.1825 132.018 78.4441 131.841 79.7011 131.929C80.9582 132.018 82.1824 132.37 83.294 132.964C84.4056 133.557 85.3794 134.379 86.152 135.374C86.9246 136.37 87.4786 137.517 87.7778 138.741C89.2374 143.894 86.4641 149.878 83.399 153.907C79.8375 158.65 68.0439 164.897 68.0439 164.897Z" fill="#2E353A"/>
<path d="M92.8573 312.463C93.0033 312.463 89.0186 304.129 88.6974 303.633C85.0922 297.911 74.7436 288.949 67.4019 290.832C66.1914 291.178 65.0675 291.774 64.1031 292.584C63.1387 293.393 62.3556 294.396 61.8048 295.528C61.254 296.66 60.9479 297.895 60.9063 299.153C60.8647 300.411 61.0886 301.664 61.5634 302.83C63.4025 307.865 69.1534 311.091 73.9993 312.565C79.7209 314.302 92.8573 312.463 92.8573 312.463Z" fill="#2E353A"/>
<path d="M85.1942 272.382C85.3402 272.382 80.1294 264.734 79.7499 264.296C75.3711 259.173 63.6943 251.89 56.7612 254.853C55.6139 255.376 54.59 256.136 53.7563 257.082C52.9227 258.028 52.2981 259.139 51.9234 260.343C51.5487 261.547 51.4323 262.817 51.5818 264.069C51.7313 265.321 52.1434 266.528 52.7911 267.61C55.36 272.295 61.5487 274.616 66.5551 275.345C72.4227 276.192 85.1942 272.382 85.1942 272.382Z" fill="#2E353A"/>
<path d="M82.9901 233.119C83.1215 233.119 77.9253 225.471 77.5458 225.033C73.167 219.91 61.4902 212.626 54.5425 215.604C53.3829 216.124 52.3468 216.884 51.5028 217.834C50.6589 218.784 50.0262 219.902 49.6468 221.115C49.2673 222.328 49.1497 223.608 49.3018 224.869C49.4538 226.131 49.8719 227.346 50.5286 228.434C53.1121 233.119 59.2862 235.44 64.3072 236.155C70.2186 236.943 82.9901 233.134 82.9901 233.119Z" fill="#2E353A"/>
<path d="M79.2099 197.096C79.3558 197.096 74.145 189.448 73.7656 189.01C69.3867 183.887 57.7099 176.603 50.7768 179.566C49.6295 180.09 48.6056 180.849 47.772 181.795C46.9383 182.742 46.3137 183.853 45.939 185.057C45.5643 186.261 45.4479 187.531 45.5974 188.783C45.7469 190.035 46.159 191.241 46.8067 192.323C49.3756 197.023 55.5643 199.329 60.5708 200.059C66.4383 200.906 79.2099 197.096 79.2099 197.096Z" fill="#2E353A"/>
<path d="M68.1316 166.08C68.263 166.08 62.2932 159.044 61.8261 158.636C56.8635 154.038 44.5444 148.068 37.9324 151.79C36.8469 152.437 35.9103 153.305 35.184 154.339C34.4578 155.373 33.9584 156.549 33.7186 157.789C33.4788 159.03 33.504 160.307 33.7925 161.537C34.081 162.767 34.6263 163.922 35.3927 164.927C38.4725 169.305 44.8655 170.94 49.9888 171.101C55.8564 171.276 68.1316 166.094 68.1316 166.08Z" fill="#2E353A"/>
<path d="M52.2073 140.449C52.3387 140.449 50.2368 131.487 50.0471 130.932C47.7555 124.554 39.5818 113.592 31.9918 113.841C30.7338 113.917 29.506 114.257 28.3883 114.84C27.2706 115.422 26.2881 116.233 25.5047 117.22C24.7212 118.208 24.1544 119.349 23.8412 120.57C23.528 121.79 23.4753 123.063 23.6867 124.306C24.4165 129.619 29.3353 133.998 33.7433 136.479C38.9249 139.398 52.1927 140.449 52.2073 140.449Z" fill="#2E353A"/>
<path d="M109.482 359.652C109.482 359.652 107.92 356.076 105.468 349.814C103.016 343.553 99.6298 334.518 96.0392 323.542C94.2438 318.053 92.4193 312.069 90.6386 305.691C89.7337 302.479 88.9163 299.254 88.0259 295.794C87.6464 294.101 87.2815 292.394 86.902 290.671C86.5225 288.949 86.2598 287.124 85.9387 285.329C84.7866 277.966 84.0411 270.545 83.7055 263.099C83.3406 255.524 83.1947 247.861 83.0049 240.198C82.8152 232.535 82.6254 224.902 82.0124 217.428C81.4777 210.11 80.4291 202.837 78.8742 195.666C77.3081 188.987 75.1491 182.461 72.4228 176.166C69.9881 170.502 67.2248 164.985 64.1469 159.643C61.3298 154.636 58.4398 150.243 55.8563 146.36C53.2728 142.478 50.8499 139.208 48.821 136.537C44.7633 131.195 42.2236 128.334 42.2236 128.334C42.2236 128.334 44.8217 131.151 49.0108 136.391C51.0834 139.033 53.5647 142.23 56.3088 146.083C59.0528 149.936 61.972 154.257 64.9058 159.22C68.1409 164.529 71.065 170.021 73.6635 175.669C76.5748 181.979 78.9242 188.534 80.6841 195.257C82.4165 202.46 83.6407 209.776 84.3477 217.151C85.1213 224.697 85.5154 232.375 85.8073 240.038C86.0993 247.701 86.4642 255.334 86.9896 262.822C87.4815 270.124 88.3683 277.394 89.6461 284.599C90.011 286.336 90.2299 288.029 90.6824 289.752C91.1349 291.474 91.5144 293.167 91.9231 294.846C92.828 298.042 93.7476 301.37 94.7109 304.479C96.5938 310.741 98.5351 316.623 100.433 321.994C104.198 332.795 107.731 341.641 110.314 347.8C112.898 353.96 114.489 357.375 114.489 357.375C114.729 358.006 114.722 358.705 114.468 359.331C114.214 359.957 113.732 360.463 113.119 360.748C112.507 361.033 111.809 361.076 111.167 360.867C110.524 360.658 109.985 360.213 109.657 359.623L109.482 359.652Z" fill="#2E353A"/>
<path d="M143.856 303.078C143.724 303.078 145.782 294.101 145.972 293.547C148.22 287.168 156.335 276.148 163.911 276.353C165.169 276.42 166.398 276.752 167.519 277.326C168.641 277.901 169.628 278.706 170.417 279.688C171.206 280.67 171.78 281.807 172.1 283.026C172.42 284.244 172.479 285.516 172.274 286.76C171.588 292.072 166.698 296.495 162.305 299.006C157.08 301.954 143.943 303.078 143.856 303.078Z" fill="#2E353A"/>
<path d="M144.702 266.559C144.571 266.559 147.957 257.976 148.235 257.465C151.431 251.481 161.108 241.818 168.567 243.176C169.801 243.434 170.966 243.949 171.988 244.687C173.009 245.425 173.864 246.371 174.496 247.461C175.128 248.552 175.523 249.763 175.656 251.016C175.789 252.27 175.656 253.537 175.267 254.736C173.807 259.888 168.275 263.493 163.59 265.318C157.999 267.449 144.717 266.559 144.702 266.559Z" fill="#2E353A"/>
<path d="M154.16 225.967C154.014 225.967 157.401 217.385 157.678 216.874C160.875 210.904 170.566 201.241 178.025 202.584C179.259 202.844 180.425 203.36 181.446 204.1C182.467 204.84 183.32 205.787 183.951 206.879C184.582 207.971 184.975 209.184 185.106 210.438C185.237 211.693 185.102 212.96 184.71 214.159C183.25 219.297 177.718 222.917 173.033 224.741C167.516 226.872 154.16 225.967 154.16 225.967Z" fill="#2E353A"/>
<path d="M161.327 187.244C161.181 187.244 164.568 178.676 164.845 178.151C168.042 172.181 177.733 162.518 185.192 163.876C186.425 164.133 187.591 164.648 188.612 165.387C189.633 166.125 190.487 167.071 191.118 168.162C191.748 169.253 192.142 170.464 192.273 171.718C192.404 172.971 192.269 174.238 191.877 175.436C190.417 180.588 184.885 184.193 180.2 186.018C174.595 188.149 161.327 187.244 161.327 187.244Z" fill="#2E353A"/>
<path d="M158.306 153.542C158.16 153.542 159.167 144.419 159.298 143.85C160.758 137.238 167.589 125.357 175.15 124.7C176.407 124.625 177.666 124.815 178.845 125.259C180.025 125.702 181.097 126.389 181.993 127.274C182.889 128.159 183.589 129.223 184.047 130.397C184.505 131.57 184.711 132.827 184.652 134.085C184.652 139.442 180.273 144.39 176.157 147.382C171.369 150.9 158.306 153.542 158.306 153.542Z" fill="#2E353A"/>
<path d="M140.177 302.085C140.309 302.085 138.849 293.007 138.718 292.452C136.893 285.928 129.522 274.397 121.947 274.105C120.686 274.091 119.436 274.342 118.278 274.843C117.121 275.345 116.082 276.084 115.23 277.014C114.377 277.943 113.73 279.042 113.331 280.238C112.932 281.435 112.789 282.702 112.912 283.957C113.248 289.299 117.845 294.028 122.064 296.816C126.997 300.1 140.163 302.085 140.177 302.085Z" fill="#2E353A"/>
<path d="M144.177 261.479C144.323 261.479 141.491 252.722 141.258 252.167C138.455 245.993 129.42 235.717 121.889 236.578C120.641 236.756 119.444 237.195 118.377 237.867C117.31 238.538 116.396 239.426 115.695 240.474C114.994 241.522 114.522 242.706 114.309 243.949C114.096 245.191 114.147 246.465 114.459 247.686C115.598 252.911 120.867 256.896 125.45 259.013C130.807 261.508 144.162 261.479 144.177 261.479Z" fill="#2E353A"/>
<path d="M153.226 223.208C153.358 223.208 150.541 214.451 150.307 213.896C147.519 207.737 138.485 197.461 130.953 198.322C129.7 198.498 128.499 198.936 127.428 199.609C126.357 200.281 125.44 201.172 124.737 202.223C124.034 203.275 123.561 204.463 123.35 205.71C123.138 206.957 123.192 208.235 123.509 209.459C124.662 214.699 129.917 218.669 134.514 220.786C139.9 223.238 153.212 223.208 153.226 223.208Z" fill="#2E353A"/>
<path d="M159.838 187.565C159.984 187.565 157.153 178.807 156.919 178.253C154.117 172.093 145.096 161.803 137.55 162.679C136.303 162.855 135.107 163.292 134.039 163.962C132.972 164.632 132.059 165.519 131.358 166.566C130.656 167.612 130.184 168.795 129.971 170.037C129.758 171.279 129.809 172.551 130.121 173.772C131.259 179.012 136.529 182.982 141.126 185.098C146.512 187.565 159.838 187.565 159.838 187.565Z" fill="#2E353A"/>
<path d="M158.028 154.709C158.174 154.709 154.409 146.287 154.102 145.777C150.643 139.938 140.542 130.728 133.142 132.421C131.921 132.734 130.78 133.301 129.792 134.085C128.805 134.868 127.994 135.852 127.413 136.97C126.832 138.089 126.493 139.317 126.419 140.576C126.345 141.834 126.537 143.094 126.983 144.273C128.69 149.338 134.354 152.71 139.156 154.315C144.79 156.198 158.028 154.709 158.028 154.709Z" fill="#2E353A"/>
<path d="M150.059 125.605C150.176 125.605 150.716 116.453 150.672 115.869C150.293 109.097 145.578 96.2523 138.236 94.3402C137.008 94.0567 135.735 94.0348 134.498 94.2761C133.261 94.5174 132.089 95.0164 131.058 95.7406C130.026 96.4648 129.159 97.398 128.512 98.4795C127.866 99.561 127.454 100.767 127.304 102.018C126.486 107.316 129.96 112.921 133.478 116.614C137.609 120.817 150.044 125.59 150.059 125.605Z" fill="#2E353A"/>
<path d="M142.659 352.048C142.659 352.048 142.163 348.18 141.594 341.465C141.024 334.751 140.338 325.147 140.032 313.602C139.871 307.763 139.813 301.574 139.93 294.948C139.93 291.62 140.105 288.292 140.236 284.731C140.353 283.008 140.484 281.257 140.601 279.505C140.718 277.754 141.01 275.915 141.199 274.105C142.2 266.737 143.598 259.428 145.388 252.211C147.184 244.84 149.227 237.44 151.227 230.054C153.227 222.668 155.197 215.283 156.744 207.926C158.311 200.761 159.369 193.493 159.912 186.178C160.287 179.326 160.053 172.453 159.211 165.642C158.49 159.516 157.408 153.439 155.971 147.441C154.686 141.836 153.183 136.8 151.811 132.348C150.439 127.896 149.023 124.058 147.855 120.934C145.476 114.658 143.856 111.184 143.856 111.184C143.856 111.184 145.549 114.629 148.06 120.847C149.315 123.956 150.76 127.765 152.278 132.188C153.796 136.61 155.372 141.646 156.773 147.236C158.349 153.241 159.573 159.333 160.437 165.481C161.441 172.361 161.832 179.317 161.605 186.266C161.215 193.687 160.303 201.071 158.875 208.364C157.416 215.808 155.664 223.281 153.81 230.725C151.957 238.169 150.088 245.584 148.468 252.911C146.859 260.05 145.641 267.271 144.819 274.543C144.673 276.309 144.411 277.987 144.352 279.768C144.294 281.549 144.177 283.286 144.089 285.008C144.089 288.336 143.987 291.781 144.089 295.035C144.089 301.589 144.308 307.778 144.6 313.485C145.14 324.913 146.06 334.416 146.746 341.028C147.432 347.64 148.016 351.405 148.016 351.405C148.067 351.751 148.049 352.104 147.963 352.443C147.878 352.782 147.726 353.101 147.518 353.381C147.309 353.662 147.047 353.899 146.747 354.078C146.447 354.257 146.114 354.376 145.768 354.427C145.422 354.477 145.069 354.46 144.73 354.374C144.391 354.289 144.072 354.137 143.792 353.928C143.511 353.72 143.275 353.458 143.095 353.158C142.916 352.857 142.797 352.525 142.747 352.179V352.106L142.659 352.048Z" fill="#2E353A"/>
<path d="M159.59 448.556H97.7906L80.4067 347.348H176.974L159.59 448.556Z" fill="#2E353A"/>
<path d="M268.447 458.131C342.666 458.131 402.833 397.965 402.833 323.746C402.833 249.527 342.666 189.36 268.447 189.36C194.228 189.36 134.062 249.527 134.062 323.746C134.062 397.965 194.228 458.131 268.447 458.131Z" fill="#BFE5F2"/>
<path d="M268.447 458.803C241.735 458.803 215.624 450.882 193.414 436.042C171.204 421.201 153.893 400.108 143.671 375.43C133.449 350.751 130.774 323.596 135.985 297.398C141.196 271.199 154.059 247.134 172.947 228.246C191.836 209.358 215.9 196.495 242.099 191.284C268.297 186.073 295.453 188.747 320.131 198.969C344.81 209.192 365.903 226.502 380.743 248.712C395.583 270.922 403.504 297.034 403.504 323.746C403.462 359.552 389.219 393.88 363.9 419.199C338.581 444.517 304.253 458.76 268.447 458.803ZM268.447 190.017C241.998 190.017 216.143 197.86 194.151 212.554C172.16 227.249 155.02 248.134 144.898 272.57C134.776 297.006 132.128 323.894 137.288 349.835C142.448 375.776 155.184 399.604 173.887 418.306C192.589 437.009 216.417 449.745 242.358 454.905C268.299 460.065 295.187 457.417 319.623 447.295C344.059 437.173 364.944 420.033 379.639 398.042C394.333 376.05 402.176 350.195 402.176 323.746C402.141 288.289 388.041 254.295 362.969 229.224C337.898 204.152 303.904 190.052 268.447 190.017Z" fill="#2E353A"/>
<path d="M232.847 412.125C221.479 407.93 211.059 401.515 202.196 393.252C193.254 384.657 186.325 374.19 181.907 362.6C176.897 349.606 174.415 335.774 174.595 321.848C174.499 309.958 176.597 298.152 180.783 287.022C184.568 276.813 190.237 267.406 197.496 259.29C211.839 243.562 230.388 232.272 250.946 226.755C261.034 224.049 271.431 222.675 281.875 222.668C290.541 222.637 299.178 223.666 307.593 225.734C315.726 227.746 323.509 230.969 330.684 235.294C337.775 239.562 344.129 244.95 349.499 251.247C355.118 258.014 359.402 265.785 362.124 274.149C365.276 283.67 366.83 293.647 366.722 303.676C366.613 322.97 359.703 341.608 347.207 356.31C341.806 362.478 335.388 367.677 328.232 371.679C322.074 375.251 315.106 377.19 307.988 377.313C303.102 377.372 298.331 375.835 294.399 372.934C292.414 371.476 290.797 369.573 289.68 367.378C288.562 365.184 287.974 362.757 287.962 360.294C279.632 372.029 268.364 377.897 254.157 377.897C242.588 377.897 233.344 373.942 226.425 366.03C219.506 358.119 216.062 348.389 216.091 336.838C216.122 328.051 217.653 319.334 220.616 311.062C223.515 302.698 227.669 294.824 232.935 287.708C238.161 280.692 244.837 274.882 252.508 270.675C260.158 266.353 268.798 264.09 277.584 264.107C283.688 264.045 289.711 265.515 295.099 268.383C300.35 271.168 304.608 275.513 307.287 280.819L308.425 277.112C308.946 275.554 309.827 274.142 310.997 272.99C312.167 271.838 313.593 270.978 315.158 270.482C316.723 269.985 318.383 269.865 320.004 270.132C321.624 270.399 323.158 271.045 324.481 272.018C325.326 272.707 325.996 273.585 326.437 274.582C326.878 275.579 327.078 276.665 327.021 277.754C327.022 278.797 326.849 279.833 326.51 280.819L308.396 341.028C306.353 347.917 305.331 352.641 305.331 355.2C305.331 359.54 307.545 361.705 311.972 361.695C317.752 361.695 323.43 359.039 329.006 353.726C335.013 347.732 339.65 340.506 342.595 332.547C346.063 323.84 347.836 314.552 347.82 305.18C347.905 296.923 346.699 288.703 344.244 280.819C342.209 274.02 338.96 267.646 334.654 262.005C330.567 256.865 325.63 252.461 320.058 248.985C314.495 245.482 308.425 242.858 302.062 241.205C295.542 239.506 288.832 238.647 282.094 238.651C273.528 238.662 265.005 239.865 256.77 242.227C248.316 244.646 240.258 248.28 232.847 253.014C225.374 257.733 218.607 263.487 212.749 270.105C206.706 277.074 201.996 285.094 198.853 293.766C195.358 303.219 193.607 313.229 193.686 323.308C193.497 335.247 195.664 347.107 200.065 358.207C203.821 367.833 209.785 376.443 217.478 383.341C224.894 389.795 233.46 394.791 242.729 398.069C252.499 401.527 262.797 403.256 273.161 403.177C284.24 403.197 295.257 401.518 305.827 398.2C306.894 397.84 308.015 397.667 309.141 397.689C310.211 397.646 311.278 397.835 312.268 398.243C313.258 398.651 314.148 399.269 314.877 400.054C316.277 401.508 317.057 403.45 317.052 405.469C317.19 407.093 316.736 408.712 315.772 410.027C314.809 411.342 313.402 412.263 311.812 412.621C298.62 416.657 284.913 418.761 271.118 418.868C258.057 418.966 245.088 416.681 232.847 412.125ZM278.971 354.208C284.474 350.237 288.565 344.611 290.647 338.152L302.324 297.079L301.551 295.415C300.808 294.061 299.912 292.798 298.88 291.649C297.484 290.046 295.966 288.552 294.34 287.183C292.251 285.501 289.879 284.206 287.334 283.359C280.726 281.02 273.477 281.27 267.046 284.059C263.549 285.566 260.336 287.659 257.544 290.248C254.63 292.962 252.039 296.004 249.822 299.312C247.508 302.737 245.552 306.391 243.984 310.215C242.413 314.027 241.196 317.974 240.35 322.009C239.514 325.845 239.083 329.759 239.065 333.686C239.05 336.203 239.201 338.719 239.518 341.217C239.789 343.43 240.278 345.61 240.977 347.727C241.595 349.644 242.474 351.466 243.59 353.142C244.62 354.694 245.914 356.053 247.414 357.156C249.01 358.323 250.806 359.188 252.712 359.71C254.955 360.334 257.275 360.634 259.602 360.601C266.588 360.676 273.402 358.427 278.971 354.208Z" fill="#2E353A"/>
<path d="M451.204 210.729C451.204 210.729 446.825 218.873 446.183 220.012C445.541 221.15 443.191 227.31 443.891 228.77C444.592 230.229 445.263 231.061 446.65 231.295C448.037 231.528 449.175 234.053 451.467 234.506C452.909 234.792 454.375 234.948 455.845 234.973C456.206 235.238 456.622 235.416 457.063 235.495C457.503 235.573 457.955 235.55 458.385 235.425C459.757 234.973 460.91 234.287 461.83 230.375C462.391 228.438 462.546 226.405 462.282 224.405L461.874 216.509L451.204 210.729Z" fill="white"/>
<path d="M457.568 236.272C456.874 236.263 456.197 236.06 455.612 235.688C454.17 235.649 452.735 235.488 451.321 235.206C450.009 234.849 448.835 234.107 447.949 233.075C447.555 232.605 447.055 232.234 446.489 231.995C445.739 231.828 445.044 231.472 444.469 230.961C443.895 230.45 443.46 229.802 443.205 229.076C442.257 227.193 445.015 220.494 445.526 219.647C446.197 218.523 450.489 210.466 450.533 210.379C450.628 210.21 450.785 210.085 450.97 210.028C451.148 209.957 451.347 209.957 451.525 210.028L462.18 215.794C462.289 215.856 462.381 215.945 462.447 216.052C462.514 216.159 462.552 216.281 462.56 216.407L462.968 224.289C463.235 226.358 463.071 228.46 462.487 230.463C461.582 234.36 460.399 235.44 458.56 236.053C458.243 236.178 457.908 236.252 457.568 236.272ZM451.51 211.721C450.46 213.677 447.394 219.414 446.811 220.391C446.008 221.72 444.081 227.514 444.534 228.419C445.263 229.879 445.818 230.404 446.767 230.565C447.631 230.82 448.398 231.329 448.971 232.024C449.66 232.855 450.579 233.465 451.613 233.776C453.003 234.045 454.415 234.197 455.831 234.228C456 234.228 456.165 234.285 456.298 234.389C456.56 234.579 456.861 234.708 457.179 234.766C457.498 234.824 457.825 234.81 458.137 234.725C459.144 234.389 460.195 234.039 461.056 230.2C461.586 228.362 461.74 226.436 461.509 224.537L461.115 216.947L451.51 211.721Z" fill="#2E353A"/>
<path d="M476.513 430.034C476.513 430.034 470.281 440.178 470.281 442.63C470.281 445.083 478.863 449.593 482.541 451.227C486.22 452.862 492.759 454.147 498.072 454.906C503.385 455.665 514.419 457.825 511.208 453.68C507.997 449.534 488.263 438.616 487.446 437.317C486.433 436.104 485.299 434.999 484.059 434.019L476.513 430.034Z" fill="white"/>
<path d="M508.552 456.862C505.437 456.735 502.335 456.389 499.269 455.825L497.955 455.621C490.54 454.482 485.257 453.227 482.25 451.884C481.724 451.651 469.551 446.206 469.551 442.63C469.551 440.047 475.244 430.705 475.886 429.64C475.985 429.485 476.139 429.372 476.317 429.323C476.495 429.275 476.685 429.294 476.849 429.377L484.395 433.377C485.75 434.413 486.979 435.603 488.059 436.923C488.409 437.332 491.62 439.346 494.729 441.302C501.356 445.433 509.588 450.585 511.719 453.242C512.493 454.205 512.683 455.037 512.274 455.723C511.865 456.409 510.581 456.862 508.552 456.862ZM476.733 430.997C474.368 434.909 470.967 441.083 470.967 442.674C470.967 444.265 477.214 448.118 482.79 450.6C485.709 451.884 490.847 453.096 498.145 454.22L499.444 454.424C502.13 454.847 510.303 456.146 510.975 455.008C510.975 455.008 510.975 454.716 510.537 454.176C508.566 451.709 500.101 446.411 493.912 442.499C488.935 439.39 487.154 438.252 486.789 437.712C485.821 436.556 484.735 435.504 483.549 434.573L476.733 430.997Z" fill="#2E353A"/>
<path d="M486.278 446.017L488.468 449.286C490.822 452.859 494.021 455.796 497.78 457.839C503.618 460.992 512.61 464.597 520.462 462.437C533.336 458.89 500.933 439.346 500.933 439.346C500.933 439.346 489.387 447.374 486.278 446.017Z" fill="white"/>
<path d="M515.353 463.824C508.873 463.824 502.217 461.109 497.429 458.482C493.571 456.388 490.284 453.381 487.854 449.724L485.665 446.44C485.574 446.315 485.524 446.164 485.524 446.009C485.524 445.855 485.574 445.704 485.665 445.579C485.768 445.457 485.907 445.372 486.062 445.335C486.217 445.298 486.38 445.312 486.526 445.374C488.409 446.192 495.809 442.003 500.465 438.777C500.582 438.698 500.719 438.656 500.859 438.656C501 438.656 501.137 438.698 501.253 438.777C503.691 440.237 525.06 453.373 524.14 460.029C523.936 461.488 522.68 462.598 520.608 463.182C518.893 463.63 517.126 463.846 515.353 463.824ZM487.708 446.834L489.066 448.892C491.361 452.356 494.468 455.207 498.115 457.197C504.071 460.408 512.711 463.809 520.272 461.737C522.549 461.094 522.695 460.102 522.739 459.781C523.396 455.008 507.603 444.28 500.947 440.222C498.626 441.769 491.649 446.367 487.708 446.834Z" fill="#2E353A"/>
<path d="M489.985 447.564C493.532 452.929 498.905 456.824 505.107 458.525C515.689 461.547 518.725 460.788 520.987 457.766" fill="white"/>
<path d="M515.208 461.182C511.707 460.984 508.247 460.326 504.918 459.226C498.52 457.498 492.982 453.477 489.358 447.929C489.309 447.847 489.277 447.756 489.263 447.661C489.25 447.566 489.255 447.469 489.28 447.377C489.304 447.284 489.347 447.198 489.406 447.122C489.464 447.046 489.538 446.983 489.621 446.936C489.79 446.84 489.99 446.813 490.178 446.862C490.366 446.911 490.528 447.032 490.628 447.199C494.098 452.38 499.306 456.148 505.312 457.825C515.631 460.744 518.448 460.014 520.404 457.329C520.522 457.177 520.695 457.077 520.885 457.05C521.076 457.023 521.27 457.07 521.426 457.183C521.581 457.299 521.683 457.472 521.71 457.663C521.738 457.855 521.688 458.05 521.572 458.204C520.857 459.206 519.895 460.007 518.781 460.528C517.666 461.05 516.435 461.275 515.208 461.182Z" fill="#2E353A"/>
<path d="M471.083 440.762C471.083 440.762 482.76 449.126 488.467 449.286Z" fill="white"/>
<path d="M488.409 450.016C482.571 449.855 471.113 441.696 470.631 441.361C470.477 441.244 470.374 441.073 470.344 440.882C470.315 440.692 470.36 440.497 470.471 440.339C470.525 440.26 470.594 440.194 470.674 440.142C470.754 440.091 470.844 440.056 470.937 440.039C471.031 440.023 471.127 440.026 471.22 440.047C471.313 440.068 471.4 440.108 471.478 440.164C471.595 440.251 483.052 448.41 488.453 448.556C488.648 448.564 488.832 448.648 488.966 448.79C489.099 448.932 489.172 449.12 489.168 449.315C489.164 449.411 489.142 449.505 489.102 449.593C489.061 449.68 489.004 449.758 488.934 449.823C488.863 449.888 488.781 449.939 488.691 449.972C488.601 450.005 488.505 450.02 488.409 450.016Z" fill="#2E353A"/>
<path d="M445.73 213.531C445.73 213.531 456.093 230.711 458.312 234.696C460.531 238.68 488.497 270.66 499.59 298.188C510.683 325.716 521.352 350.559 520.9 358.557C520.447 366.556 484.03 434.019 484.03 434.019L476.484 430.034C476.484 430.034 488.015 366.541 486.701 359.886C485.388 353.23 444.621 287.081 444.621 287.081C444.621 287.081 425.529 273.769 417.545 258.224" fill="#2E353A"/>
<path d="M447.205 256.458C447.205 256.458 441.439 268.879 441.439 270.66C441.439 272.441 473.843 367.884 483.169 389.632C489.073 403.564 494.257 417.789 498.699 432.253C498.699 432.253 502.261 436.631 499.59 441.127C496.919 445.623 486.278 448.673 484.06 444.674C481.841 440.675 460.078 419.861 450.766 398.959C441.454 378.058 428.128 342.575 420.567 329.263C410.607 312.219 401.716 294.572 393.944 276.426C384.165 253.349 374.108 228.332 374.108 228.332C387.289 229.433 400.557 227.946 413.167 223.953C433.601 217.297 442.359 204.555 442.359 204.555C442.359 204.555 447.555 217.837 448.883 220.406" fill="#2E353A"/>
<path d="M450.255 293.941C450.154 293.939 450.056 293.908 449.973 293.851C449.89 293.794 449.826 293.713 449.788 293.62L439.571 267.055C439.536 266.956 439.531 266.849 439.557 266.748C439.583 266.647 439.639 266.555 439.717 266.486L451.16 256.677C451.257 256.587 451.385 256.537 451.518 256.537C451.651 256.537 451.778 256.587 451.875 256.677C451.965 256.772 452.014 256.897 452.014 257.027C452.014 257.158 451.965 257.283 451.875 257.378L440.695 266.967L450.781 293.24C450.829 293.364 450.827 293.502 450.776 293.625C450.724 293.748 450.626 293.845 450.503 293.897L450.255 293.941Z" fill="white"/>
<path d="M440.023 267.361C439.899 267.363 439.778 267.316 439.688 267.23C439.637 267.184 439.597 267.127 439.569 267.064C439.541 267.002 439.527 266.934 439.527 266.865C439.527 266.792 439.527 258.779 435.936 253.729C435.046 252.43 434.331 251.408 433.732 250.576C431.864 247.92 431.295 247.117 430.959 245.789C430.728 244.235 430.728 242.656 430.959 241.103C430.984 240.974 431.056 240.859 431.162 240.781C431.267 240.703 431.398 240.667 431.528 240.68C431.594 240.689 431.657 240.711 431.714 240.744C431.771 240.778 431.82 240.822 431.86 240.876C431.899 240.929 431.928 240.989 431.943 241.053C431.959 241.117 431.962 241.184 431.952 241.249C431.746 242.677 431.746 244.127 431.952 245.555C432.244 246.693 432.74 247.394 434.579 250.007C435.163 250.839 435.893 251.86 436.783 253.159C440.023 257.816 440.476 264.501 440.549 266.413L461.29 265.61C461.422 265.609 461.549 265.659 461.647 265.748C461.744 265.837 461.804 265.96 461.815 266.092C461.819 266.157 461.81 266.223 461.787 266.285C461.765 266.347 461.73 266.403 461.685 266.451C461.64 266.499 461.585 266.537 461.525 266.563C461.464 266.589 461.399 266.603 461.334 266.602L440.082 267.42L440.023 267.361Z" fill="white"/>
<path d="M509.529 361.856C500.29 361.856 488.555 355.872 488.029 355.609C487.913 355.547 487.826 355.441 487.788 355.316C487.75 355.19 487.763 355.054 487.825 354.938C487.854 354.879 487.895 354.826 487.945 354.784C487.995 354.741 488.052 354.708 488.115 354.688C488.177 354.667 488.243 354.66 488.309 354.665C488.374 354.67 488.438 354.688 488.496 354.719C488.628 354.792 501.969 361.593 511.106 360.791C511.172 360.785 511.239 360.792 511.302 360.812C511.366 360.833 511.424 360.866 511.475 360.909C511.525 360.953 511.566 361.006 511.596 361.066C511.625 361.126 511.642 361.191 511.646 361.258C511.652 361.323 511.645 361.389 511.625 361.451C511.606 361.514 511.574 361.572 511.532 361.622C511.49 361.672 511.438 361.713 511.38 361.744C511.322 361.774 511.258 361.792 511.193 361.798C510.653 361.841 510.099 361.856 509.529 361.856Z" fill="white"/>
<path d="M508.289 369.563H508.172C499.984 367.505 490.788 359.973 490.394 359.652C490.305 359.557 490.255 359.432 490.255 359.302C490.255 359.172 490.305 359.046 490.394 358.951C490.435 358.9 490.486 358.858 490.543 358.827C490.601 358.795 490.664 358.776 490.729 358.769C490.794 358.762 490.86 358.768 490.923 358.787C490.985 358.806 491.044 358.837 491.095 358.878C491.182 358.951 500.509 366.6 508.478 368.585C508.542 368.602 508.601 368.631 508.653 368.671C508.705 368.711 508.749 368.761 508.782 368.818C508.814 368.875 508.835 368.938 508.843 369.003C508.851 369.068 508.846 369.135 508.829 369.198C508.801 369.315 508.73 369.418 508.63 369.485C508.53 369.553 508.408 369.581 508.289 369.563Z" fill="white"/>
<path d="M439.615 259.596C439.536 259.596 439.457 259.578 439.386 259.542C439.315 259.507 439.254 259.455 439.206 259.392C439.168 259.338 439.141 259.276 439.126 259.211C439.112 259.146 439.111 259.079 439.123 259.014C439.136 258.948 439.161 258.886 439.198 258.831C439.234 258.776 439.282 258.728 439.338 258.691C441.308 257.319 444.432 254.677 444.432 253.378C444.432 252.517 443.366 251.496 442.227 250.459C440.967 249.407 439.926 248.118 439.162 246.664C438.418 244.927 435.747 238.111 436.243 236.447C436.263 236.385 436.295 236.327 436.337 236.277C436.38 236.227 436.432 236.186 436.49 236.156C436.548 236.126 436.612 236.108 436.677 236.103C436.743 236.098 436.808 236.105 436.871 236.126C436.998 236.169 437.103 236.261 437.163 236.381C437.223 236.501 437.234 236.64 437.192 236.768C436.885 237.659 438.476 242.607 440.038 246.226C440.752 247.546 441.713 248.715 442.87 249.671C444.227 250.97 445.395 252.079 445.395 253.364C445.395 255.612 440.432 259.1 439.863 259.494C439.79 259.549 439.705 259.584 439.615 259.596Z" fill="white"/>
<path d="M390.981 262.457C390.875 262.461 390.771 262.432 390.684 262.373C390.596 262.314 390.53 262.229 390.494 262.13C390.458 262.03 390.455 261.922 390.485 261.821C390.514 261.72 390.576 261.631 390.66 261.567L394.746 258.297C398.673 255.174 401.096 247.19 401.125 247.102C401.165 246.976 401.253 246.87 401.371 246.807C401.488 246.744 401.625 246.73 401.753 246.766C401.879 246.807 401.985 246.895 402.048 247.012C402.11 247.129 402.125 247.266 402.088 247.394C401.986 247.73 399.534 255.758 395.374 259.071L391.287 262.34C391.202 262.414 391.093 262.455 390.981 262.457Z" fill="white"/>
<path d="M488.015 446.659C487.942 446.656 487.87 446.638 487.805 446.605C487.739 446.573 487.682 446.526 487.636 446.469C482.41 440.063 477.691 433.26 473.521 426.122C467.873 416.022 451.627 388.392 451.452 388.173C449.948 384.848 448.831 381.361 448.124 377.78C448.022 377.226 447.949 376.715 447.876 376.321C447.336 372.642 447.103 371.125 442.213 367.972C437.323 364.819 437.017 359.331 436.608 353.449C436.521 352.062 436.418 350.632 436.258 349.216C435.601 343.377 420.1 317.105 408.788 298.013C406.219 293.634 403.884 289.723 401.986 286.468C391.857 269.04 384.851 246.124 384.778 245.891C384.741 245.763 384.756 245.626 384.818 245.509C384.881 245.392 384.987 245.303 385.113 245.263C385.176 245.243 385.241 245.236 385.306 245.242C385.371 245.248 385.435 245.268 385.492 245.299C385.549 245.331 385.6 245.373 385.64 245.425C385.68 245.476 385.71 245.536 385.726 245.599C385.799 245.832 392.776 268.646 402.848 285.957C404.745 289.212 407.08 293.167 409.649 297.502C421.02 316.696 436.579 342.998 437.25 349.099C437.411 350.559 437.513 352.018 437.615 353.39C438.009 359.229 438.345 364.308 442.753 367.14C448.022 370.526 448.285 372.292 448.869 376.16C448.869 376.642 449.015 377.138 449.102 377.693C449.795 381.167 450.883 384.551 452.343 387.779C452.474 388.027 468.734 415.657 474.397 425.728C478.541 432.808 483.225 439.557 488.409 445.914C488.451 445.965 488.482 446.024 488.501 446.086C488.519 446.149 488.525 446.215 488.519 446.28C488.512 446.345 488.492 446.408 488.461 446.466C488.43 446.523 488.387 446.574 488.336 446.615C488.237 446.664 488.124 446.68 488.015 446.659Z" fill="white"/>
<path d="M374.108 228.332C374.108 228.332 375.042 238.666 379.129 241.935C383.216 245.205 395.476 248.065 412.233 244.854C428.989 241.643 447.38 227.339 449.015 222.377C450.649 217.414 442.33 204.569 442.33 204.569C442.33 204.569 432.667 218.29 405.694 222.785C378.72 227.281 374.108 228.332 374.108 228.332Z" fill="white"/>
<path d="M398.031 246.971C388.149 246.971 381.376 244.679 378.662 242.504C374.385 239.074 373.422 228.843 373.378 228.405C373.362 228.231 373.41 228.057 373.512 227.915C373.613 227.773 373.763 227.672 373.933 227.631C374.122 227.631 378.881 226.449 405.577 221.997C431.849 217.618 441.629 204.219 441.731 204.088C441.8 203.993 441.89 203.916 441.994 203.863C442.098 203.81 442.213 203.782 442.329 203.781C442.449 203.784 442.566 203.816 442.671 203.874C442.775 203.933 442.863 204.016 442.928 204.117C443.804 205.46 451.394 217.458 449.7 222.552C447.905 227.923 429.091 242.242 412.364 245.511C407.644 246.457 402.844 246.945 398.031 246.971ZM374.91 228.916C375.188 231.163 376.37 238.782 379.581 241.366C383.23 244.285 394.922 247.438 412.086 244.081C428.959 240.782 446.869 226.463 448.328 222.085C449.482 218.611 444.767 209.839 442.256 205.781C439.658 208.89 429.237 219.545 405.766 223.442C384.135 227.062 376.866 228.434 374.91 228.916Z" fill="#2E353A"/>
<path d="M481.841 128.159C475.17 123.78 423.238 83.3202 418.348 81.5395C413.458 79.7588 403.752 81.5395 403.752 81.5395C403.752 81.5395 373.655 85.2177 367.35 87.7574C366.751 87.9909 353.191 95.7852 352.754 96.1939C347.864 100.193 326.481 110.031 320.73 122.467C314.205 136.537 371.539 221.253 374.21 228.346C376.881 235.44 390.878 237.191 403.752 235.411C416.626 233.63 427.923 231.032 437.25 220.362C438.941 218.237 440.358 215.908 441.468 213.429C442.801 210.66 443.141 207.516 442.431 204.526C439.104 190.659 430.609 150.681 425.004 124.247C434.345 130.276 453.773 142.522 465.07 146.842C480.162 152.681 491.708 148.623 491.708 143.733C491.708 138.843 488.497 132.596 481.841 128.159Z" fill="white"/>
<path d="M463.815 136.785C454.916 135.907 446.297 133.188 438.505 128.801C438.505 128.801 450.051 123.474 450.488 120.803C450.926 118.132 434.506 120.365 436.724 119.475C438.943 118.584 442.052 116.366 436.724 116.366C432.477 116.086 428.293 115.191 424.303 113.709L424.902 124.204C429.981 127.488 438.038 132.582 446.124 137.253C453.73 141.251 461.562 144.804 469.58 147.893C469.58 147.893 479.345 138.566 463.815 136.785Z" fill="#BFE5F2"/>
<g style="mix-blend-mode:multiply">
<path d="M403.65 235.396L405.299 235.163C408.861 233.44 414.889 232.36 420.757 230.901C429.631 228.682 419.866 228.682 405.212 221.136C390.557 213.59 384.777 202.497 371.466 186.514C358.154 170.531 352.827 162.533 355.498 160.767C358.169 159.001 350.17 158.986 347.061 157.205C343.952 155.425 351.44 155.439 357.716 149.221C363.993 143.003 345.718 150.549 343.952 150.112C342.186 149.674 345.718 143.894 345.718 143.894L332.845 157.205L363.92 210.481L365.7 211.809L367.744 214.728L373.582 227.281C373.816 227.719 373.976 228.084 374.078 228.332C376.764 235.44 390.776 237.191 403.65 235.396Z" fill="#BFE5F2"/>
</g>
<path d="M344.799 111.272C354.622 109.812 382.004 125.43 382.004 125.43C366.956 115.213 353.79 105.638 344.784 101.317L328.189 112.994L327.05 114.059C328.977 113.68 336.363 112.468 344.799 111.272Z" fill="#BFE5F2"/>
<path opacity="0.5" d="M463.815 136.785C454.916 135.907 446.297 133.188 438.505 128.801C438.505 128.801 450.051 123.474 450.488 120.803C450.926 118.132 434.506 120.365 436.724 119.475C438.943 118.584 442.052 116.366 436.724 116.366C432.477 116.086 428.293 115.191 424.303 113.709L424.902 124.204C429.981 127.488 438.038 132.582 446.124 137.253C453.73 141.251 461.562 144.804 469.58 147.893C469.58 147.893 479.345 138.566 463.815 136.785Z" fill="white"/>
<path opacity="0.5" d="M403.65 235.396L405.299 235.163C408.861 233.44 414.889 232.36 420.757 230.901C429.631 228.682 419.866 228.682 405.212 221.136C390.557 213.59 384.777 202.497 371.466 186.514C358.154 170.531 352.827 162.533 355.498 160.767C358.169 159.001 350.17 158.986 347.061 157.205C343.952 155.425 351.44 155.439 357.716 149.221C363.993 143.003 345.718 150.549 343.952 150.112C342.186 149.674 345.718 143.894 345.718 143.894L332.845 157.205L363.92 210.481L365.7 211.809L367.744 214.728L373.582 227.281C373.816 227.719 373.976 228.084 374.078 228.332C376.764 235.44 390.776 237.191 403.65 235.396Z" fill="white"/>
<path opacity="0.5" d="M344.799 111.272C354.622 109.812 382.004 125.43 382.004 125.43C366.956 115.213 353.79 105.638 344.784 101.317L328.189 112.994L327.05 114.059C328.977 113.68 336.363 112.468 344.799 111.272Z" fill="white"/>
<path d="M394.309 236.783C384.471 236.783 375.611 234.433 373.422 228.594C372.78 226.872 368.459 219.837 362.986 210.992C339.734 173.275 315.315 132.173 319.971 122.146C324.35 112.687 337.297 104.879 345.865 99.7115C348.048 98.4712 350.158 97.1066 352.185 95.6247C352.71 95.2014 366.299 87.3779 367.029 87.086C373.364 84.5317 402.38 80.9703 403.621 80.8243C403.986 80.7513 413.59 79.029 418.597 80.8243C421.837 82.0066 444.037 98.8066 461.874 112.308C471.536 119.606 479.871 125.941 482.235 127.517C489.679 132.48 492.336 139.106 492.336 143.66C492.282 144.505 492.019 145.324 491.571 146.043C491.123 146.761 490.503 147.357 489.767 147.776C485.461 150.695 476.047 151.79 464.705 147.455C456.78 144.419 443.41 136.931 425.982 125.736C431.821 153.542 439.834 190.995 443.03 204.307C443.783 207.463 443.427 210.781 442.023 213.706C440.883 216.254 439.41 218.639 437.644 220.8C427.894 231.937 416.028 234.389 403.709 236.082C400.595 236.531 397.454 236.765 394.309 236.783ZM412.408 81.4811C409.537 81.5244 406.673 81.783 403.84 82.2547C403.49 82.2547 373.728 85.9475 367.569 88.4288C366.766 88.7937 353.761 96.2815 353.104 96.7631C351.026 98.2903 348.857 99.6893 346.609 100.952C338.202 106.032 325.503 113.709 321.3 122.846C316.57 133.063 347.572 183.288 364.226 210.306C370.167 219.939 374.093 226.361 374.794 228.157C377.377 235.046 391.506 236.403 403.548 234.739C415.59 233.075 427.179 230.696 436.593 219.939C438.248 217.866 439.632 215.59 440.71 213.166C441.964 210.55 442.283 207.583 441.615 204.759C438.345 191.156 430.113 152.403 424.187 124.481C424.158 124.338 424.172 124.19 424.226 124.056C424.281 123.921 424.374 123.805 424.493 123.722C424.613 123.644 424.752 123.602 424.895 123.602C425.037 123.602 425.177 123.644 425.296 123.722C443.366 135.399 457.174 143.178 465.231 146.244C476.003 150.374 485.081 149.396 488.935 146.74C489.465 146.441 489.918 146.02 490.255 145.513C490.592 145.006 490.805 144.426 490.876 143.821C490.876 139.646 488.395 133.531 481.432 128.889C479.024 127.283 470.675 120.963 460.998 113.636C444.169 100.908 421.136 83.4662 418.1 82.3569C416.263 81.7565 414.34 81.4607 412.408 81.4811Z" fill="#2E353A"/>
<path d="M327.765 113.373C327.765 113.373 322.438 119.212 320.365 121.912C309.243 136.202 273.848 181.989 273.453 185.682C273.059 189.375 274.738 191.856 283.393 195.184C292.049 198.512 349.951 140.493 349.951 140.493" fill="white"/>
<g style="mix-blend-mode:multiply" opacity="0.8">
<path d="M327.853 113.549L327.108 114.03C326.028 115.227 323.693 117.84 321.883 119.985L294.997 155.249C294.997 155.249 294.165 156.184 292.852 157.731C282.766 171.174 273.979 183.303 273.439 185.463C273.439 185.536 273.439 185.609 273.439 185.667C273.089 189.156 274.782 191.812 283.393 195.126C284.926 195.71 287.962 194.396 291.947 191.842C289.922 191.435 287.988 190.663 286.24 189.565C281.35 186.456 285.349 183.347 285.349 183.347C285.349 183.347 291.698 185.886 297.96 187.594C299.259 186.616 300.617 185.565 302.003 184.456C300.669 183.582 299.405 182.606 298.223 181.537C292.895 176.662 288.458 171.772 288.458 171.772L329.152 114.979L327.853 113.549Z" fill="#BFE5F2"/>
</g>
<path opacity="0.5" d="M327.853 113.549L327.108 114.03C326.028 115.227 323.693 117.84 321.883 119.985L294.997 155.249C294.997 155.249 294.165 156.184 292.852 157.731C282.766 171.174 273.979 183.303 273.439 185.463C273.439 185.536 273.439 185.609 273.439 185.667C273.089 189.156 274.782 191.812 283.393 195.126C284.926 195.71 287.962 194.396 291.947 191.842C289.922 191.435 287.988 190.663 286.24 189.565C281.35 186.456 285.349 183.347 285.349 183.347C285.349 183.347 291.698 185.886 297.96 187.594C299.259 186.616 300.617 185.565 302.003 184.456C300.669 183.582 299.405 182.606 298.223 181.537C292.895 176.662 288.458 171.772 288.458 171.772L329.152 114.979L327.853 113.549Z" fill="white"/>
<path d="M284.065 196.031C283.737 196.035 283.41 195.98 283.101 195.87C275.044 192.761 272.213 190.032 272.694 185.653C273.088 182.019 302.353 143.908 319.752 121.518C321.825 118.862 326.977 113.184 327.196 112.95C327.258 112.873 327.336 112.809 327.424 112.762C327.512 112.716 327.608 112.687 327.707 112.68C327.806 112.672 327.906 112.684 328 112.716C328.094 112.748 328.181 112.799 328.255 112.866C328.329 112.933 328.388 113.014 328.429 113.105C328.47 113.195 328.493 113.293 328.495 113.393C328.497 113.492 328.478 113.591 328.441 113.683C328.403 113.775 328.347 113.858 328.276 113.928C328.276 113.928 322.934 119.766 320.905 122.423C292.793 158.592 274.431 183.478 274.198 185.813C273.862 188.922 275.307 191.345 283.685 194.571C289.713 196.892 326.32 163.219 349.455 140.026C349.592 139.888 349.779 139.811 349.973 139.811C350.167 139.811 350.354 139.888 350.491 140.026C350.629 140.163 350.706 140.35 350.706 140.544C350.706 140.738 350.629 140.925 350.491 141.062C344.697 146.784 295.245 196.031 284.065 196.031Z" fill="#2E353A"/>
<path d="M444.928 110.717L424.902 124.204C427.821 123.795 441.658 118.891 441.658 118.891" fill="white"/>
<path d="M424.902 124.933C424.755 124.936 424.611 124.892 424.491 124.808C424.371 124.724 424.279 124.605 424.231 124.466C424.169 124.314 424.162 124.146 424.209 123.989C424.257 123.833 424.357 123.697 424.493 123.605L444.534 110.119C444.612 110.064 444.7 110.025 444.793 110.005C444.887 109.984 444.983 109.983 445.077 110.001C445.171 110.019 445.26 110.055 445.34 110.108C445.42 110.16 445.488 110.229 445.541 110.308C445.647 110.471 445.685 110.67 445.647 110.861C445.609 111.052 445.497 111.22 445.336 111.33L428.916 122.394C433.951 120.847 441.322 118.248 441.425 118.205C441.618 118.141 441.829 118.156 442.011 118.248C442.193 118.34 442.331 118.5 442.395 118.694C442.459 118.887 442.443 119.098 442.352 119.28C442.26 119.462 442.1 119.6 441.906 119.664C441.337 119.854 427.909 124.598 425.004 125.006L424.902 124.933Z" fill="#2E353A"/>
<path d="M444.11 119.212C443.94 119.208 443.777 119.147 443.647 119.038C443.517 118.93 443.428 118.78 443.395 118.613C443.361 118.424 443.403 118.228 443.512 118.07C443.622 117.911 443.789 117.802 443.979 117.767L448.474 116.949C448.666 116.915 448.863 116.957 449.024 117.066C449.185 117.175 449.297 117.343 449.335 117.533C449.354 117.629 449.354 117.728 449.334 117.824C449.314 117.92 449.274 118.01 449.219 118.091C449.163 118.171 449.091 118.239 449.009 118.291C448.926 118.344 448.834 118.379 448.737 118.394L444.241 119.212H444.11Z" fill="#2E353A"/>
<path d="M295.742 171.509C292.651 171.417 289.578 172 286.736 173.217Z" fill="white"/>
<path d="M286.736 173.991C286.542 174.027 286.342 173.986 286.179 173.875C286.016 173.764 285.904 173.593 285.868 173.4C285.831 173.206 285.872 173.006 285.983 172.843C286.094 172.68 286.265 172.568 286.459 172.531C289.406 171.265 292.595 170.662 295.8 170.765C295.896 170.772 295.99 170.799 296.075 170.842C296.161 170.886 296.237 170.946 296.3 171.019C296.362 171.093 296.41 171.178 296.439 171.269C296.468 171.361 296.48 171.457 296.472 171.553C296.453 171.745 296.36 171.923 296.213 172.048C296.066 172.174 295.876 172.237 295.683 172.225C292.713 172.138 289.759 172.701 287.028 173.874C286.941 173.934 286.841 173.974 286.736 173.991Z" fill="#2E353A"/>
<path d="M339.384 151.498C339.384 151.498 350.637 148.054 353.615 145.762Z" fill="white"/>
<path d="M339.384 152.228C339.19 152.255 338.994 152.204 338.838 152.087C338.682 151.969 338.579 151.794 338.552 151.6C338.525 151.407 338.576 151.21 338.694 151.054C338.811 150.898 338.986 150.796 339.18 150.768C339.282 150.768 350.331 147.353 353.177 145.164C353.33 145.046 353.524 144.994 353.715 145.018C353.907 145.043 354.081 145.142 354.199 145.295C354.313 145.449 354.363 145.642 354.339 145.832C354.314 146.023 354.217 146.196 354.068 146.317C351.002 148.667 340.07 152.024 339.603 152.155C339.536 152.194 339.461 152.219 339.384 152.228Z" fill="#2E353A"/>
<path d="M356.374 144.624C356.374 144.624 358.213 143.018 358.899 143.018Z" fill="white"/>
<path d="M356.373 145.353C356.269 145.352 356.166 145.33 356.07 145.287C355.975 145.244 355.889 145.183 355.819 145.105C355.684 144.966 355.609 144.78 355.609 144.587C355.609 144.394 355.684 144.208 355.819 144.069C356.644 143.218 357.682 142.603 358.826 142.288C359.019 142.288 359.205 142.365 359.342 142.502C359.478 142.639 359.555 142.824 359.555 143.018C359.552 143.21 359.474 143.394 359.337 143.53C359.201 143.666 359.018 143.744 358.826 143.748C358.074 144.127 357.385 144.619 356.782 145.207C356.665 145.298 356.522 145.349 356.373 145.353Z" fill="#2E353A"/>
<path d="M424.902 124.933C424.721 124.931 424.547 124.863 424.413 124.742C424.279 124.622 424.193 124.456 424.172 124.277L422.347 105.521C422.338 105.425 422.347 105.328 422.375 105.236C422.403 105.144 422.449 105.058 422.51 104.983C422.571 104.909 422.646 104.847 422.731 104.801C422.815 104.756 422.908 104.728 423.004 104.718C423.1 104.708 423.197 104.718 423.289 104.746C423.381 104.773 423.467 104.819 423.542 104.88C423.616 104.941 423.678 105.016 423.724 105.101C423.769 105.186 423.797 105.279 423.807 105.375L425.646 124.145C425.656 124.24 425.647 124.337 425.619 124.428C425.591 124.52 425.546 124.605 425.484 124.678C425.423 124.752 425.348 124.812 425.263 124.856C425.178 124.9 425.085 124.926 424.989 124.933H424.902Z" fill="#2E353A"/>
<path d="M273.41 185.872C273.41 185.872 270.826 195.753 287.393 199.855C295.26 201.796 347.324 214.451 347.324 214.451C347.324 214.451 351.98 204.467 349.324 204.467C346.667 204.467 298.661 172.546 298.661 172.546" fill="white"/>
<path d="M281.146 197.68L341.515 213.093L343.121 209.269C343.121 209.269 320.38 204.715 306.178 197.592C291.976 190.47 291.071 192.703 286.196 189.608C281.321 186.514 285.306 183.391 285.306 183.391C285.306 183.391 298.632 188.718 305.74 189.156C312.848 189.594 303.522 186.499 298.194 181.61C295.99 179.596 293.947 177.567 292.356 175.903L273.381 185.857C273.381 185.857 271.542 193.024 281.146 197.68Z" fill="#BFE5F2"/>
<path opacity="0.5" d="M281.146 197.68L341.515 213.093L343.121 209.269C343.121 209.269 320.38 204.715 306.178 197.592C291.976 190.47 291.071 192.703 286.196 189.608C281.321 186.514 285.306 183.391 285.306 183.391C285.306 183.391 298.632 188.718 305.74 189.156C312.848 189.594 303.522 186.499 298.194 181.61C295.99 179.596 293.947 177.567 292.356 175.903L273.381 185.857C273.381 185.857 271.542 193.024 281.146 197.68Z" fill="white"/>
<path d="M347.324 215.297H347.149C347.149 215.297 295.085 202.584 287.218 200.701C280.649 199.081 276.198 196.323 273.994 192.659C272.71 190.629 272.25 188.186 272.709 185.828C272.761 185.642 272.882 185.484 273.048 185.386C273.214 185.288 273.412 185.258 273.599 185.303C273.785 185.354 273.942 185.476 274.038 185.643C274.134 185.809 274.16 186.007 274.11 186.193C273.78 188.188 274.196 190.235 275.278 191.944C277.278 195.301 281.423 197.782 287.568 199.242C294.866 201.066 341.164 212.378 346.915 213.75C348.711 209.78 349.834 205.927 349.324 205.328C346.55 205.328 306.338 178.618 298.31 173.217C298.15 173.107 298.038 172.939 298 172.748C297.962 172.557 298 172.359 298.106 172.195C298.159 172.116 298.227 172.048 298.307 171.995C298.386 171.942 298.476 171.906 298.57 171.888C298.664 171.87 298.76 171.872 298.853 171.892C298.947 171.912 299.035 171.951 299.113 172.006C318.015 184.602 347.003 203.475 349.353 203.84C349.591 203.843 349.824 203.905 350.033 204.019C350.241 204.134 350.419 204.298 350.55 204.496C351.761 206.408 348.886 212.918 347.966 214.874C347.909 214.998 347.819 215.102 347.705 215.177C347.592 215.252 347.46 215.294 347.324 215.297Z" fill="#2E353A"/>
<path d="M349.324 204.511C349.324 204.511 366.416 212.51 367.744 214.728C369.072 216.947 372.123 228.478 372.123 232.039C372.123 235.6 371.685 235.586 369.466 235.586C367.248 235.586 361.468 227.149 360.14 225.369C358.811 223.588 355.761 223.588 351.703 220.99C350.572 220.273 349.601 219.332 348.848 218.224C348.095 217.117 347.576 215.868 347.324 214.553L349.324 204.511Z" fill="white"/>
<path d="M369.525 236.316C367.613 236.316 364.46 232.506 360.315 226.784C360.023 226.376 359.789 226.04 359.614 225.821C358.78 224.992 357.735 224.406 356.593 224.128C354.751 223.474 352.993 222.607 351.353 221.545C350.125 220.772 349.068 219.756 348.25 218.558C347.431 217.36 346.868 216.007 346.594 214.582C346.587 214.509 346.587 214.436 346.594 214.363L348.594 204.365C348.616 204.257 348.662 204.156 348.728 204.068C348.793 203.98 348.877 203.907 348.973 203.854C349.073 203.804 349.183 203.778 349.295 203.778C349.406 203.778 349.516 203.804 349.616 203.854C352.535 205.197 366.985 212.057 368.357 214.349C369.729 216.64 372.896 228.375 372.896 232.039C372.896 235.703 372.225 236.316 369.525 236.316ZM348.068 214.524C348.329 215.721 348.826 216.854 349.53 217.857C350.234 218.86 351.132 219.711 352.17 220.362C353.719 221.36 355.38 222.173 357.118 222.785C358.523 223.15 359.794 223.91 360.782 224.975C360.957 225.194 361.205 225.529 361.497 225.953C366.839 233.338 368.795 234.885 369.525 234.885C371.451 234.885 371.451 234.885 371.451 232.068C371.451 228.624 368.415 217.282 367.072 215.122C366.226 213.663 356.374 208.7 349.805 205.591L348.068 214.524Z" fill="#2E353A"/>
<path d="M342.026 213.517C341.953 213.531 341.879 213.531 341.807 213.517C341.715 213.489 341.629 213.442 341.555 213.38C341.481 213.318 341.421 213.242 341.377 213.156C341.334 213.071 341.308 212.977 341.301 212.881C341.295 212.785 341.308 212.688 341.34 212.597L343.996 204.35C344.023 204.256 344.069 204.168 344.13 204.092C344.192 204.015 344.269 203.952 344.355 203.906C344.442 203.86 344.537 203.832 344.635 203.824C344.733 203.815 344.831 203.826 344.924 203.857C345.018 203.887 345.104 203.936 345.178 204.001C345.252 204.065 345.312 204.144 345.355 204.232C345.397 204.321 345.422 204.417 345.427 204.515C345.432 204.613 345.417 204.711 345.383 204.803L342.726 213.05C342.67 213.189 342.573 213.308 342.448 213.392C342.323 213.475 342.176 213.519 342.026 213.517Z" fill="#2E353A"/>
<path d="M471.624 142.317C471.624 142.317 467.245 157.41 465.406 166.284C463.567 175.158 451.204 210.685 451.204 210.685L461.859 217.341C461.859 217.341 485.388 168.59 489.869 157.906C494.35 147.222 492.978 139.252 488.541 134.815" fill="white"/>
<path d="M461.859 218.114C461.724 218.111 461.593 218.071 461.48 217.998L450.825 211.342C450.683 211.255 450.576 211.122 450.52 210.965C450.464 210.809 450.463 210.638 450.518 210.481C450.635 210.13 462.954 174.91 464.691 166.196C466.428 157.483 470.894 142.317 470.894 142.157C470.948 141.963 471.077 141.799 471.252 141.701C471.428 141.602 471.635 141.577 471.828 141.631C472.022 141.686 472.186 141.814 472.284 141.99C472.383 142.165 472.408 142.372 472.354 142.565C472.354 142.711 467.902 157.731 466.15 166.474C464.486 174.808 453.758 205.722 452.109 210.422L461.582 216.334C464.501 210.189 485.096 167.422 489.183 157.614C493.124 148.141 492.701 140.099 488.015 135.326C487.88 135.19 487.804 135.007 487.804 134.815C487.804 134.623 487.88 134.44 488.015 134.304C488.151 134.169 488.334 134.093 488.526 134.093C488.718 134.093 488.901 134.169 489.037 134.304C494.175 139.427 494.715 148.141 490.497 158.183C486.118 168.736 462.764 217.209 462.516 217.706C462.473 217.798 462.41 217.88 462.332 217.946C462.254 218.011 462.162 218.059 462.064 218.085L461.859 218.114Z" fill="#2E353A"/>
<path d="M453.218 205.606C454.021 205.606 464.136 211.181 464.136 211.181Z" fill="#2E353A"/>
<path d="M383.216 125.43C380.763 125.021 367.671 116.439 358.68 109.491C349.689 102.543 344.784 101.317 344.784 101.317L338.654 105.404C337.726 102.417 338.02 99.1838 339.471 96.4129C341.923 91.9173 350.506 87.4217 359.088 84.1522C367.671 80.8827 377.479 78.0948 383.624 78.0948C389.769 78.0948 391.389 80.547 391.389 83.8165C391.389 87.086 391.389 97.3032 389.346 105.068C387.303 112.833 383.216 125.43 383.216 125.43Z" fill="white"/>
<g style="mix-blend-mode:multiply">
<path d="M379.362 82.8094C379.362 82.8094 375.582 94.1359 371.802 97.5368C368.882 99.9847 365.723 102.131 362.373 103.944C362.373 103.944 360.11 96.0188 354.447 96.0188C348.784 96.0188 340.099 99.7991 340.099 99.7991C340.099 99.7991 340.099 96.7778 347.266 92.9974L354.447 89.2316L371.057 82.8094H379.362Z" fill="#BFE5F2"/>
</g>
<path opacity="0.5" d="M379.362 82.8094C379.362 82.8094 375.582 94.1359 371.802 97.5368C368.882 99.9847 365.723 102.131 362.373 103.944C362.373 103.944 360.11 96.0188 354.447 96.0188C348.784 96.0188 340.099 99.7991 340.099 99.7991C340.099 99.7991 340.099 96.7778 347.266 92.9974L354.447 89.2316L371.057 82.8094H379.362Z" fill="white"/>
<path d="M383.216 126.16H383.084C380.37 125.707 366.927 116.789 358.271 110.104C350.754 104.266 346.113 102.529 344.931 102.149L339.092 106.046C338.997 106.104 338.89 106.141 338.78 106.156C338.67 106.171 338.557 106.164 338.45 106.134C338.345 106.098 338.25 106.038 338.171 105.96C338.093 105.881 338.034 105.786 337.997 105.681C337.497 104.106 337.316 102.446 337.463 100.8C337.611 99.1535 338.086 97.553 338.859 96.0917C341.778 90.6328 352.666 85.8745 358.87 83.4954C363.745 81.6417 375.918 77.3213 383.683 77.3213C389.39 77.3213 392.178 79.4231 392.178 83.7727C392.178 87.1298 392.178 97.3616 390.105 105.214C388.033 113.067 384.004 125.561 383.96 125.649C383.914 125.806 383.814 125.943 383.679 126.036C383.543 126.129 383.38 126.173 383.216 126.16ZM344.785 100.587H344.96C345.164 100.587 350.127 101.93 359.132 108.892C367.584 115.417 379.363 123.182 382.734 124.51C383.61 121.766 386.894 111.374 388.573 104.776C390.601 97.1135 390.601 87.0276 390.601 83.7143C390.601 81.2476 389.769 78.7225 383.566 78.7225C378.282 78.7225 369.437 80.9411 359.293 84.809C349.149 88.677 342.07 93.0412 340.055 96.734C338.848 99.0277 338.486 101.673 339.034 104.207L344.317 100.689C344.457 100.603 344.622 100.567 344.785 100.587Z" fill="#2E353A"/>
<path d="M346.828 73.5555C351.616 78.8362 354.977 85.2517 356.592 92.1946C359.249 103.74 375.947 117.314 379.946 117.314C383.945 117.314 383.668 97.5222 382.34 91.7567C381.011 85.9913 375.684 70.4465 375.684 70.4465C375.684 70.4465 354.432 60.2293 346.828 73.5555Z" fill="white"/>
<path d="M380.005 118.044C375.713 118.044 358.636 104.09 355.936 92.3552C354.335 85.5499 351.042 79.2591 346.361 74.0664C346.248 73.9532 346.176 73.8063 346.155 73.6481C346.134 73.49 346.165 73.3293 346.244 73.1906C354.038 59.4411 375.83 69.6729 376.049 69.7897C376.137 69.8313 376.217 69.8902 376.282 69.9629C376.347 70.0356 376.397 70.1207 376.429 70.213C376.648 70.8406 381.785 85.8453 383.114 91.5962C384.267 96.6464 384.807 113.242 381.742 117.11C381.544 117.39 381.285 117.62 380.983 117.782C380.682 117.944 380.347 118.034 380.005 118.044ZM347.791 73.4533C352.474 78.7555 355.759 85.1418 357.352 92.0341C360.008 103.492 376.604 116.585 380.005 116.585C380.005 116.585 380.282 116.585 380.588 116.19C383.07 113.082 382.909 97.2156 381.683 91.9173C380.457 86.6189 375.845 73.1614 375.144 70.972C372.707 69.8919 354.681 62.3458 347.791 73.4533Z" fill="#2E353A"/>
<g style="mix-blend-mode:multiply">
<path d="M379.362 82.8094C379.362 82.8094 375.582 94.1359 371.802 97.5368C368.882 99.9847 365.723 102.131 362.373 103.944C362.373 103.944 360.11 96.0188 354.447 96.0188C348.784 96.0188 340.099 99.7991 340.099 99.7991C340.099 99.7991 340.099 96.7778 347.266 92.9974L354.447 89.2316L371.057 82.8094H379.362Z" fill="#BFE5F2"/>
</g>
<path opacity="0.5" d="M379.362 82.8094C379.362 82.8094 375.582 94.1359 371.802 97.5368C368.882 99.9847 365.723 102.131 362.373 103.944C362.373 103.944 360.11 96.0188 354.447 96.0188C348.784 96.0188 340.099 99.7991 340.099 99.7991C340.099 99.7991 340.099 96.7778 347.266 92.9974L354.447 89.2316L371.057 82.8094H379.362Z" fill="white"/>
<path d="M346.828 73.5555C351.616 78.8362 354.977 85.2517 356.592 92.1946C359.249 103.74 375.947 117.314 379.946 117.314C383.945 117.314 383.668 97.5221 382.34 91.7567C381.011 85.9913 375.684 70.4465 375.684 70.4465C375.684 70.4465 354.432 60.2293 346.828 73.5555Z" fill="white"/>
<path d="M380.005 118.044C375.713 118.044 358.636 104.09 355.936 92.3552C354.335 85.5499 351.042 79.2591 346.361 74.0664C346.248 73.9532 346.176 73.8063 346.155 73.6481C346.134 73.49 346.165 73.3293 346.244 73.1906C354.038 59.4411 375.83 69.6729 376.049 69.7897C376.137 69.8313 376.217 69.8902 376.282 69.9629C376.347 70.0356 376.397 70.1207 376.429 70.213C376.648 70.8406 381.785 85.8453 383.114 91.5962C384.267 96.6464 384.807 113.242 381.742 117.11C381.544 117.39 381.285 117.62 380.983 117.782C380.682 117.944 380.347 118.034 380.005 118.044ZM347.791 73.4533C352.474 78.7555 355.759 85.1418 357.352 92.034C360.008 103.492 376.604 116.585 380.005 116.585C380.005 116.585 380.282 116.585 380.588 116.19C383.07 113.082 382.909 97.2156 381.683 91.9173C380.457 86.6189 375.845 73.1614 375.144 70.972C372.707 69.8919 354.681 62.3458 347.791 73.4533Z" fill="#2E353A"/>
<path d="M332.801 52.1577C335.933 60.6738 339.806 68.8986 344.376 76.7374C351.119 87.8158 364.139 94.0921 371.364 91.2021C378.589 88.3121 383.508 78.9852 381.581 64.5352C381.158 61.3532 378.385 60.0542 377.494 57.2371C374.298 47.0199 371.043 37.1676 369.919 33.4164C368.459 28.5852 356.899 23.7685 344.857 27.1401C332.816 30.5118 330.875 40.5831 332.801 52.1577Z" fill="white"/>
<path d="M372.809 43.3125C372.809 43.3125 368.43 46.5675 358.592 44.6846C348.755 42.8017 341.982 43.225 342.362 45.8231C342.741 48.4212 343.5 51.8512 343.5 51.8512C343.5 51.8512 331.692 41.634 342.391 38.9191C350.097 36.9195 354.549 39.9555 356.432 40.3788C358.315 40.802 372.809 43.3125 372.809 43.3125Z" fill="#BFE5F2"/>
<path opacity="0.5" d="M372.809 43.3125C372.809 43.3125 368.43 46.5675 358.592 44.6846C348.755 42.8017 341.982 43.225 342.362 45.8231C342.741 48.4212 343.5 51.8512 343.5 51.8512C343.5 51.8512 331.692 41.634 342.391 38.9191C350.097 36.9195 354.549 39.9555 356.432 40.3788C358.315 40.802 372.809 43.3125 372.809 43.3125Z" fill="white"/>
<path d="M367.335 92.6909C359.497 92.6909 349.294 86.2832 343.748 77.1607C339.139 69.2768 335.232 61.0031 332.071 52.4351C332.063 52.3966 332.063 52.3568 332.071 52.3183C329.663 37.9412 333.779 29.4609 344.638 26.4249C357.235 22.8927 369.072 28.0889 370.605 33.1829C371.13 34.949 372.064 38.0434 373.363 41.9405C374.823 46.3193 376.472 51.6177 378.165 57.0474C378.589 58.1276 379.213 59.1181 380.004 59.9666C381.185 61.2057 381.977 62.7635 382.281 64.4476C384.442 80.6637 378.195 89.2608 371.626 91.8881C370.26 92.4268 368.804 92.6993 367.335 92.6909ZM333.516 51.968C336.626 60.4151 340.465 68.5759 344.989 76.3579C351.776 87.4947 364.606 93.1142 371.101 90.5161C377.158 88.0931 382.909 80.0215 380.851 64.6227C380.583 63.216 379.92 61.9147 378.939 60.8715C378.017 59.8603 377.307 58.674 376.852 57.3831C375.159 51.968 373.451 46.655 372.05 42.2908C370.809 38.4375 369.816 35.3285 369.276 33.5332C368.05 29.4755 357.264 24.3523 345.105 27.6948C335.063 30.5848 331.283 38.4959 333.516 51.968Z" fill="#2E353A"/>
<path d="M341.486 68.0528C341.486 68.0528 333.764 64.6811 333.283 68.0528C332.801 71.4245 336.202 73.8912 339.544 75.3508C340.378 75.8067 341.328 76.0043 342.274 75.9186C343.22 75.8328 344.119 75.4675 344.857 74.8691" fill="white"/>
<path d="M341.982 76.6353C341.046 76.6236 340.122 76.4199 339.267 76.0368C334.494 73.9934 332.115 71.1472 332.568 68.0236C332.606 67.6666 332.731 67.3243 332.932 67.0267C333.133 66.729 333.404 66.485 333.721 66.3159C336.041 65.0168 341.194 67.2062 341.778 67.469C341.942 67.5556 342.067 67.7016 342.128 67.8772C342.188 68.0529 342.179 68.245 342.103 68.4144C342.027 68.5838 341.889 68.7176 341.717 68.7888C341.545 68.8599 341.353 68.8629 341.179 68.7972C339.253 67.9506 335.706 66.8851 334.421 67.5857C334.305 67.6496 334.206 67.7419 334.134 67.8542C334.063 67.9665 334.021 68.0951 334.013 68.228C333.546 71.4829 337.457 73.6723 339.851 74.694C340.553 75.0844 341.355 75.2607 342.156 75.2011C342.958 75.1414 343.724 74.8484 344.361 74.3583C344.502 74.2396 344.682 74.1784 344.865 74.1867C345.049 74.1951 345.223 74.2725 345.352 74.4034C345.481 74.5343 345.556 74.7091 345.562 74.8929C345.567 75.0767 345.504 75.2558 345.383 75.3946C344.447 76.2229 343.232 76.6661 341.982 76.6353Z" fill="#2E353A"/>
<path d="M372.999 48.9904C372.999 48.9904 364.402 46.9469 368.08 58.4048C368.81 60.6672 373.816 63.3091 373.816 63.3091C373.816 63.3091 373.407 66.9873 371.364 67.396" fill="white"/>
<path d="M371.349 68.1258C371.182 68.1231 371.02 68.0641 370.89 67.9581C370.76 67.8522 370.67 67.7056 370.634 67.5419C370.615 67.447 370.615 67.3492 370.634 67.2543C370.653 67.1594 370.691 67.0692 370.745 66.9891C370.8 66.9089 370.87 66.8404 370.951 66.7874C371.032 66.7345 371.122 66.6982 371.218 66.6808C372.269 66.4618 372.809 64.7249 373.013 63.7616C371.67 63.0026 368.08 60.8424 367.394 58.6822C366.022 54.4201 366.138 51.3842 367.729 49.6618C369.685 47.5454 373.013 48.319 373.159 48.3482C373.346 48.3932 373.508 48.5106 373.61 48.6747C373.711 48.8388 373.743 49.0362 373.699 49.2239C373.679 49.3177 373.639 49.4064 373.584 49.4848C373.528 49.5631 373.458 49.6294 373.376 49.6798C373.294 49.7302 373.203 49.7636 373.108 49.7781C373.013 49.7926 372.916 49.7878 372.823 49.764C372.823 49.764 370.167 49.1655 368.795 50.6543C367.423 52.1431 367.598 54.5661 368.795 58.2297C369.262 59.6893 372.342 61.7473 374.166 62.7107C374.293 62.783 374.396 62.8903 374.463 63.0197C374.531 63.1491 374.559 63.2952 374.546 63.4405C374.546 63.8783 374.006 67.6733 371.51 68.1696L371.349 68.1258Z" fill="#2E353A"/>
<path d="M366.853 75.5697C366.853 75.5697 360.723 76.7958 358.271 73.935Z" fill="white"/>
<path d="M363.919 76.6353C362.792 76.7247 361.659 76.5788 360.591 76.207C359.523 75.8351 358.544 75.2453 357.716 74.475C357.654 74.4022 357.607 74.3178 357.577 74.2267C357.547 74.1355 357.536 74.0395 357.543 73.9439C357.551 73.8484 357.577 73.7552 357.62 73.6698C357.664 73.5843 357.724 73.5083 357.796 73.446C357.869 73.3837 357.954 73.3364 358.045 73.3067C358.136 73.277 358.232 73.2656 358.328 73.273C358.423 73.2805 358.516 73.3067 358.602 73.3501C358.687 73.3936 358.763 73.4535 358.825 73.5263C360.971 76.0368 366.664 74.9859 366.722 74.9859C366.815 74.9647 366.912 74.9628 367.006 74.9803C367.099 74.9978 367.189 75.0344 367.268 75.0877C367.347 75.141 367.415 75.21 367.467 75.2904C367.518 75.3708 367.553 75.4609 367.569 75.5551C367.588 75.6491 367.588 75.7459 367.57 75.84C367.552 75.9341 367.515 76.0237 367.462 76.1036C367.409 76.1836 367.341 76.2524 367.262 76.3061C367.182 76.3597 367.093 76.3972 366.999 76.4163C365.981 76.5777 364.95 76.651 363.919 76.6353Z" fill="#2E353A"/>
<path d="M357.863 56.3614C357.863 56.3614 353.367 54.7266 350.915 56.7701C349.602 57.6836 348.587 58.9626 347.996 60.4483" fill="white"/>
<path d="M348.054 61.1635H347.878C347.785 61.1396 347.698 61.0977 347.621 61.04C347.544 60.9823 347.48 60.9101 347.431 60.8274C347.382 60.7447 347.35 60.6531 347.337 60.558C347.323 60.4629 347.329 60.3661 347.353 60.2731C347.963 58.6459 349.04 57.2346 350.447 56.2154C353.191 53.9384 357.921 55.617 358.11 55.6899C358.202 55.7209 358.286 55.7699 358.357 55.8342C358.429 55.8984 358.487 55.9765 358.528 56.0637C358.569 56.151 358.592 56.2456 358.595 56.3419C358.599 56.4382 358.583 56.5342 358.548 56.6241C358.482 56.806 358.347 56.9543 358.172 57.0364C357.997 57.1185 357.796 57.1277 357.614 57.062C357.614 57.062 353.483 55.6024 351.382 57.3393C350.225 58.1785 349.321 59.3197 348.769 60.638C348.722 60.7908 348.627 60.9243 348.498 61.019C348.369 61.1136 348.213 61.1643 348.054 61.1635Z" fill="#2E353A"/>
<path d="M357.746 63.3529C358.329 64.7103 358.213 66.0532 357.483 66.3597C356.753 66.6662 355.702 65.8342 355.118 64.4768C354.534 63.1193 354.666 61.7911 355.396 61.47C356.125 61.1489 357.176 62.0392 357.746 63.3529Z" fill="#2E353A"/>
<path d="M372.444 56.2008C373.028 57.5437 372.896 58.8865 372.181 59.2076C371.466 59.5287 370.386 58.6676 369.817 57.3247C369.247 55.9819 369.349 54.6245 370.079 54.318C370.809 54.0114 371.86 54.858 372.444 56.2008Z" fill="#2E353A"/>
<path d="M339.34 69.9941C339.34 69.9941 344.215 66.4472 343.325 63.3383C342.434 60.2293 340.668 60.2293 342.449 58.4632C344.23 56.6971 345.543 55.7921 345.106 53.1357C344.668 50.4792 337.559 46.0274 339.778 43.3709C341.997 40.7145 341.106 37.5325 359.307 42.0281C377.509 46.5237 389.054 39.3716 383.727 32.7158C378.399 26.0601 373.962 25.1697 373.962 25.1697C373.962 25.1697 384.179 20.7909 375.743 16.2807C367.306 11.7706 348.214 11.9019 337.559 20.28C326.904 28.6581 329.123 35.7664 329.123 35.7664C329.123 35.7664 323.357 36.6568 322.905 45.5457C322.452 54.4347 339.34 69.9941 339.34 69.9941Z" fill="#2E353A"/>
<path d="M368.386 40.262C364.506 40.0991 360.686 39.2491 357.103 37.7515C354.296 36.5541 351.304 35.8433 348.258 35.6496C341.208 35.6496 339.749 39.6489 339.69 39.8241C339.671 39.8864 339.638 39.9441 339.596 39.9936C339.553 40.0431 339.501 40.0834 339.442 40.1121C339.384 40.1408 339.32 40.1572 339.254 40.1604C339.189 40.1636 339.124 40.1534 339.063 40.1306C339 40.1107 338.942 40.0787 338.892 40.0363C338.842 39.9939 338.801 39.9421 338.771 39.8837C338.741 39.8254 338.723 39.7617 338.718 39.6963C338.713 39.631 338.721 39.5653 338.742 39.503C338.814 39.3132 340.449 34.6425 348.258 34.6425C351.421 34.8296 354.528 35.5655 357.439 36.8173C361.978 38.4375 366.693 40.116 372.619 38.8024C375.83 38.0872 377.713 36.9341 378.18 35.4015C378.793 33.431 376.896 31.373 376.881 31.3438C376.788 31.2508 376.736 31.1248 376.736 30.9935C376.736 30.8622 376.788 30.7362 376.881 30.6432C376.978 30.5529 377.106 30.5027 377.239 30.5027C377.371 30.5027 377.499 30.5529 377.596 30.6432C377.684 30.7454 379.902 33.1537 379.129 35.6788C378.53 37.5909 376.414 38.9629 372.823 39.7657C371.366 40.088 369.878 40.2543 368.386 40.262Z" fill="white"/>
<path d="M335.822 39.0359C335.69 39.0247 335.566 38.9619 335.479 38.861C335.392 38.7601 335.347 38.629 335.355 38.4959C335.355 38.3937 336.217 28.7603 344.755 26.6001C349.791 25.3302 355.615 26.279 360.3 27.038C363.219 27.5196 365.832 27.9429 366.927 27.5196C367.047 27.4939 367.172 27.5123 367.28 27.5716C367.388 27.6308 367.47 27.7269 367.513 27.8422C367.555 27.9575 367.555 28.0843 367.512 28.1993C367.468 28.3143 367.385 28.4099 367.277 28.4684C365.934 28.9647 363.38 28.556 360.139 28.0305C355.542 27.2715 349.82 26.352 345.003 27.5634C337.151 29.5631 336.363 38.4813 336.348 38.5688C336.344 38.634 336.328 38.6979 336.299 38.7567C336.271 38.8155 336.231 38.8681 336.182 38.9115C336.133 38.9549 336.076 38.9882 336.015 39.0095C335.953 39.0309 335.888 39.0399 335.822 39.0359Z" fill="white"/>
<path d="M330.174 54.099C330.075 54.0973 329.978 54.0669 329.896 54.0114C328.586 52.9125 327.57 51.5042 326.941 49.914C326.311 48.3237 326.088 46.6017 326.291 44.9035C326.7 38.4812 331.633 38.4083 331.692 38.4083C331.811 38.4286 331.918 38.4903 331.996 38.5824C332.074 38.6746 332.117 38.7913 332.117 38.9118C332.117 39.0324 332.074 39.1491 331.996 39.2412C331.918 39.3334 331.811 39.3951 331.692 39.4154C331.517 39.4154 327.634 39.503 327.313 44.9619C327.115 46.4892 327.302 48.0416 327.855 49.4789C328.408 50.9162 329.31 52.193 330.48 53.194C330.534 53.2305 330.58 53.2775 330.615 53.3321C330.65 53.3868 330.674 53.448 330.685 53.5121C330.696 53.5762 330.694 53.6419 330.679 53.7051C330.664 53.7683 330.636 53.8279 330.597 53.8801C330.553 53.9512 330.49 54.009 330.415 54.0476C330.341 54.0861 330.257 54.1039 330.174 54.099Z" fill="white"/>
<path d="M333.195 49.9537C333.1 49.9538 333.006 49.9262 332.926 49.8745C332.846 49.8227 332.782 49.7489 332.743 49.6618C332.383 48.9959 332.169 48.2607 332.116 47.5055C332.063 46.7503 332.172 45.9926 332.436 45.283C333.08 43.8917 334.228 42.7964 335.647 42.2178C335.707 42.192 335.772 42.1788 335.838 42.1788C335.903 42.1789 335.968 42.1924 336.028 42.2183C336.088 42.2443 336.142 42.2822 336.187 42.3298C336.232 42.3774 336.267 42.4337 336.289 42.4952C336.337 42.6171 336.335 42.7531 336.283 42.8734C336.231 42.9938 336.134 43.0887 336.012 43.1374C334.85 43.6296 333.906 44.5269 333.356 45.6625C333.149 46.2454 333.068 46.8654 333.119 47.4818C333.169 48.0982 333.349 48.6969 333.648 49.2385C333.702 49.3606 333.707 49.4994 333.661 49.625C333.614 49.7505 333.521 49.8529 333.399 49.9099C333.335 49.9385 333.266 49.9534 333.195 49.9537Z" fill="white"/>
<path d="M334.319 57.8648C334.238 57.8631 334.159 57.8424 334.088 57.8043C334.017 57.7663 333.956 57.712 333.91 57.6458L332.027 55.0185C331.95 54.9102 331.919 54.7754 331.94 54.644C331.962 54.5127 332.036 54.3954 332.144 54.3179C332.252 54.2405 332.387 54.2093 332.518 54.2312C332.65 54.2531 332.767 54.3263 332.845 54.4347L334.727 57.0766C334.802 57.1834 334.831 57.3151 334.809 57.4435C334.788 57.5718 334.716 57.6864 334.611 57.7626C334.528 57.8299 334.425 57.8661 334.319 57.8648Z" fill="white"/>
</svg>
