<svg width="1025" height="1008" viewBox="0 0 1025 1008" fill="none" xmlns="http://www.w3.org/2000/svg">
<path d="M800.162 760.224C805.735 760.224 810.252 755.706 810.252 750.133C810.252 744.56 805.735 740.042 800.162 740.042C794.589 740.042 790.071 744.56 790.071 750.133C790.071 755.706 794.589 760.224 800.162 760.224Z" stroke="#263238" stroke-linejoin="round"/>
<path d="M931.342 861.132C936.915 861.132 941.433 856.614 941.433 851.041C941.433 845.468 936.915 840.951 931.342 840.951C925.769 840.951 921.251 845.468 921.251 851.041C921.251 856.614 925.769 861.132 931.342 861.132Z" stroke="#263238" stroke-linejoin="round"/>
<path d="M751.95 854.405C757.523 854.405 762.041 849.887 762.041 844.314C762.041 838.741 757.523 834.223 751.95 834.223C746.377 834.223 741.859 838.741 741.859 844.314C741.859 849.887 746.377 854.405 751.95 854.405Z" stroke="#263238" stroke-miterlimit="10"/>
<path d="M811.374 847.678C820.662 847.678 828.192 840.148 828.192 830.86C828.192 821.571 820.662 814.042 811.374 814.042C802.085 814.042 794.556 821.571 794.556 830.86C794.556 840.148 802.085 847.678 811.374 847.678Z" stroke="#263238" stroke-linejoin="round"/>
<path d="M791.192 916.071C796.765 916.071 801.283 911.554 801.283 905.98C801.283 900.407 796.765 895.89 791.192 895.89C785.619 895.89 781.101 900.407 781.101 905.98C781.101 911.554 785.619 916.071 791.192 916.071Z" stroke="#263238" stroke-linejoin="round"/>
<path d="M1004.22 934.011C1009.79 934.011 1014.31 929.493 1014.31 923.92C1014.31 918.347 1009.79 913.829 1004.22 913.829C998.648 913.829 994.13 918.347 994.13 923.92C994.13 929.493 998.648 934.011 1004.22 934.011Z" stroke="#263238" stroke-linejoin="round"/>
<path d="M1014.31 762.466C1019.88 762.466 1024.4 757.948 1024.4 752.375C1024.4 746.802 1019.88 742.285 1014.31 742.285C1008.74 742.285 1004.22 746.802 1004.22 752.375C1004.22 757.948 1008.74 762.466 1014.31 762.466Z" stroke="#263238" stroke-linejoin="round"/>
<path d="M932.464 736.679C938.037 736.679 942.555 732.161 942.555 726.588C942.555 721.015 938.037 716.497 932.464 716.497C926.891 716.497 922.373 721.015 922.373 726.588C922.373 732.161 926.891 736.679 932.464 736.679Z" stroke="#263238" stroke-linejoin="round"/>
<path d="M966.1 790.496C975.388 790.496 982.918 782.967 982.918 773.678C982.918 764.39 975.388 756.86 966.1 756.86C956.811 756.86 949.282 764.39 949.282 773.678C949.282 782.967 956.811 790.496 966.1 790.496Z" stroke="#263238" stroke-linejoin="round"/>
<path d="M808.01 754.618L923.494 844.314" stroke="#263238" stroke-linejoin="round"/>
<path d="M935.827 843.193L960.494 790.496" stroke="#263238" stroke-linejoin="round"/>
<path d="M971.706 790.496L1004.22 913.829L1014.31 762.466" stroke="#263238" stroke-linejoin="round"/>
<path d="M921.252 856.647L801.283 905.98" stroke="#263238" stroke-linejoin="round"/>
<path d="M828.192 830.86L950.403 779.284" stroke="#263238" stroke-linejoin="round"/>
<path d="M806.889 814.042L800.162 760.224" stroke="#263238" stroke-linejoin="round"/>
<path d="M982.918 768.072L1005.34 757.981" stroke="#263238" stroke-linejoin="round"/>
<path d="M757.556 853.284L784.465 897.011" stroke="#263238" stroke-linejoin="round"/>
<path d="M751.95 834.223L793.434 757.981" stroke="#263238" stroke-linejoin="round"/>
<path d="M823.707 843.193L994.13 923.92" stroke="#263238" stroke-linejoin="round"/>
<path d="M931.343 861.132L998.615 917.193" stroke="#263238" stroke-linejoin="round"/>
<path d="M810.252 750.133L949.282 773.678" stroke="#263238" stroke-linejoin="round"/>
<path d="M1004.22 752.375L808.01 745.648" stroke="#263238" stroke-linejoin="round"/>
<path d="M1005.34 747.89L942.555 732.194" stroke="#263238" stroke-linejoin="round"/>
<path d="M922.373 731.073L797.919 898.132" stroke="#263238" stroke-linejoin="round"/>
<path d="M794.555 836.466L762.041 844.314" stroke="#263238" stroke-linejoin="round"/>
<path d="M865.909 758.609C865.909 757.672 865.631 756.757 865.11 755.978C864.589 755.2 863.849 754.593 862.983 754.236C862.117 753.878 861.164 753.786 860.246 753.97C859.328 754.155 858.485 754.608 857.824 755.272C857.163 755.936 856.714 756.781 856.534 757.7C856.354 758.619 856.451 759.571 856.812 760.436C857.174 761.3 857.784 762.037 858.565 762.554C859.346 763.071 860.263 763.345 861.2 763.341C861.82 763.341 862.434 763.218 863.007 762.98C863.58 762.742 864.1 762.393 864.537 761.954C864.975 761.514 865.321 760.992 865.557 760.418C865.792 759.844 865.912 759.23 865.909 758.609Z" fill="#263238"/>
<path d="M818.796 875.932C818.8 874.995 818.527 874.078 818.009 873.297C817.492 872.516 816.755 871.906 815.891 871.545C815.026 871.183 814.074 871.086 813.155 871.266C812.236 871.446 811.391 871.895 810.727 872.556C810.063 873.217 809.61 874.06 809.426 874.978C809.241 875.897 809.334 876.849 809.691 877.715C810.048 878.581 810.655 879.321 811.433 879.842C812.212 880.363 813.128 880.641 814.064 880.641C814.685 880.644 815.299 880.525 815.873 880.289C816.447 880.054 816.969 879.707 817.409 879.27C817.848 878.832 818.197 878.312 818.435 877.739C818.673 877.167 818.796 876.552 818.796 875.932Z" fill="#263238"/>
<path d="M951.008 820.634C951.013 819.697 950.738 818.779 950.22 817.997C949.702 817.216 948.963 816.606 948.098 816.245C947.232 815.884 946.279 815.788 945.359 815.97C944.439 816.152 943.594 816.603 942.931 817.266C942.268 817.929 941.817 818.774 941.635 819.694C941.453 820.614 941.549 821.567 941.91 822.433C942.271 823.298 942.881 824.037 943.662 824.555C944.444 825.073 945.362 825.348 946.299 825.343C947.548 825.343 948.746 824.847 949.629 823.964C950.512 823.081 951.008 821.883 951.008 820.634Z" fill="#263238"/>
<path d="M949.775 900.285C949.779 899.348 949.506 898.431 948.988 897.65C948.471 896.869 947.734 896.259 946.87 895.897C946.006 895.536 945.054 895.439 944.134 895.619C943.215 895.799 942.37 896.248 941.706 896.909C941.042 897.569 940.589 898.412 940.405 899.331C940.22 900.249 940.313 901.202 940.67 902.068C941.027 902.934 941.634 903.674 942.412 904.195C943.191 904.716 944.107 904.994 945.043 904.994C946.293 904.988 947.489 904.491 948.375 903.609C949.26 902.728 949.763 901.534 949.775 900.285Z" fill="#263238"/>
<path d="M781.101 790.653C781.101 789.717 780.823 788.801 780.302 788.022C779.781 787.244 779.041 786.637 778.175 786.28C777.309 785.922 776.357 785.83 775.438 786.014C774.52 786.199 773.677 786.652 773.016 787.316C772.355 787.98 771.906 788.825 771.726 789.744C771.546 790.663 771.643 791.615 772.005 792.48C772.366 793.344 772.976 794.081 773.757 794.598C774.538 795.116 775.455 795.389 776.392 795.385C777.012 795.385 777.627 795.262 778.199 795.024C778.772 794.786 779.292 794.437 779.73 793.998C780.167 793.558 780.514 793.036 780.749 792.462C780.984 791.888 781.104 791.274 781.101 790.653Z" fill="#263238"/>
<path d="M1011.91 787.783C1014.51 787.783 1016.62 785.675 1016.62 783.074C1016.62 780.473 1014.51 778.365 1011.91 778.365C1009.31 778.365 1007.2 780.473 1007.2 783.074C1007.2 785.675 1009.31 787.783 1011.91 787.783Z" fill="#263238"/>
<path d="M841.198 598.142V483.174C841.195 482.413 841.342 481.66 841.632 480.957C841.922 480.253 842.348 479.614 842.886 479.076C843.424 478.539 844.062 478.113 844.766 477.823C845.469 477.533 846.223 477.386 846.983 477.389H967.692C968.454 477.386 969.209 477.533 969.913 477.823C970.618 478.112 971.258 478.538 971.798 479.075C972.337 479.613 972.765 480.251 973.058 480.955C973.35 481.658 973.5 482.412 973.5 483.174V487.659" stroke="#263238" stroke-miterlimit="10"/>
<path d="M851.423 611.933H846.938C846.177 611.933 845.423 611.783 844.719 611.491C844.016 611.199 843.377 610.77 842.839 610.231C842.302 609.691 841.876 609.051 841.587 608.346C841.297 607.642 841.15 606.887 841.153 606.125" stroke="#263238" stroke-miterlimit="10"/>
<path d="M973.5 495.418V606.125C973.5 607.666 972.888 609.143 971.799 610.232C970.71 611.321 969.233 611.933 967.692 611.933H859.72" stroke="#263238" stroke-miterlimit="10"/>
<path d="M878.668 528.202V515.51H936.007V573.812H918.292" stroke="#263238" stroke-miterlimit="10"/>
<path d="M878.668 544.818V536.072" stroke="#263238" stroke-miterlimit="10"/>
<path d="M911.295 573.812H878.668V552.689" stroke="#263238" stroke-miterlimit="10"/>
<path d="M868.354 478.42V442.026" stroke="#263238" stroke-miterlimit="10"/>
<path d="M894.343 478.42V442.026" stroke="#263238" stroke-miterlimit="10"/>
<path d="M920.333 478.42V442.026" stroke="#263238" stroke-miterlimit="10"/>
<path d="M946.322 478.42V442.026" stroke="#263238" stroke-miterlimit="10"/>
<path d="M868.354 648.664V612.292" stroke="#263238" stroke-miterlimit="10"/>
<path d="M894.343 648.664V612.292" stroke="#263238" stroke-miterlimit="10"/>
<path d="M920.333 648.664V612.292" stroke="#263238" stroke-miterlimit="10"/>
<path d="M946.322 648.664V612.292" stroke="#263238" stroke-miterlimit="10"/>
<path d="M974.262 506.36H1010.66" stroke="#263238" stroke-miterlimit="10"/>
<path d="M974.262 532.35H1010.66" stroke="#263238" stroke-miterlimit="10"/>
<path d="M974.262 558.34H1010.66" stroke="#263238" stroke-miterlimit="10"/>
<path d="M974.262 584.329H1010.66" stroke="#263238" stroke-miterlimit="10"/>
<path d="M804.019 506.36H840.413" stroke="#263238" stroke-miterlimit="10"/>
<path d="M804.019 532.35H840.413" stroke="#263238" stroke-miterlimit="10"/>
<path d="M804.019 558.34H840.413" stroke="#263238" stroke-miterlimit="10"/>
<path d="M804.019 584.329H840.413" stroke="#263238" stroke-miterlimit="10"/>
<path d="M1015.39 558.407C1015.39 557.471 1015.11 556.556 1014.59 555.778C1014.07 555 1013.33 554.394 1012.47 554.036C1011.6 553.677 1010.65 553.584 1009.73 553.766C1008.82 553.949 1007.97 554.4 1007.31 555.061C1006.65 555.723 1006.2 556.566 1006.02 557.484C1005.83 558.402 1005.93 559.353 1006.29 560.218C1006.64 561.082 1007.25 561.821 1008.03 562.341C1008.81 562.861 1009.72 563.138 1010.66 563.138C1011.91 563.138 1013.12 562.64 1014 561.753C1014.89 560.865 1015.39 559.662 1015.39 558.407Z" fill="#263238"/>
<path d="M858.397 478.42C858.397 477.489 858.121 476.578 857.604 475.804C857.086 475.029 856.351 474.426 855.49 474.069C854.63 473.713 853.683 473.62 852.769 473.801C851.856 473.983 851.017 474.432 850.358 475.09C849.7 475.749 849.251 476.588 849.07 477.501C848.888 478.415 848.981 479.362 849.337 480.222C849.694 481.083 850.297 481.818 851.072 482.335C851.846 482.853 852.757 483.129 853.688 483.129C854.937 483.129 856.135 482.633 857.018 481.75C857.901 480.867 858.397 479.669 858.397 478.42Z" fill="#263238"/>
<path d="M825.815 583.275C825.815 582.344 825.538 581.433 825.021 580.659C824.504 579.885 823.768 579.281 822.908 578.925C822.047 578.568 821.1 578.475 820.187 578.657C819.273 578.838 818.434 579.287 817.776 579.945C817.117 580.604 816.669 581.443 816.487 582.356C816.305 583.27 816.398 584.217 816.755 585.077C817.111 585.938 817.715 586.673 818.489 587.191C819.264 587.708 820.174 587.984 821.106 587.984C821.724 587.984 822.336 587.862 822.908 587.626C823.479 587.389 823.998 587.042 824.435 586.605C824.873 586.168 825.219 585.649 825.456 585.077C825.693 584.506 825.815 583.894 825.815 583.275Z" fill="#263238"/>
<path d="M920.332 458.485C922.933 458.485 925.041 456.377 925.041 453.776C925.041 451.175 922.933 449.067 920.332 449.067C917.731 449.067 915.623 451.175 915.623 453.776C915.623 456.377 917.731 458.485 920.332 458.485Z" fill="#263238"/>
<path d="M911.161 612.225C911.161 611.293 910.885 610.383 910.367 609.609C909.85 608.834 909.114 608.231 908.254 607.874C907.393 607.518 906.446 607.424 905.533 607.606C904.62 607.788 903.78 608.236 903.122 608.895C902.463 609.553 902.015 610.393 901.833 611.306C901.651 612.219 901.745 613.166 902.101 614.027C902.458 614.887 903.061 615.623 903.836 616.14C904.61 616.658 905.52 616.934 906.452 616.934C907.699 616.928 908.893 616.43 909.775 615.548C910.657 614.666 911.155 613.472 911.161 612.225Z" fill="#263238"/>
<path d="M951.098 637.474C951.103 636.537 950.828 635.619 950.31 634.837C949.792 634.056 949.053 633.446 948.188 633.085C947.322 632.724 946.369 632.628 945.449 632.81C944.529 632.992 943.684 633.443 943.021 634.106C942.358 634.769 941.907 635.614 941.725 636.534C941.543 637.454 941.639 638.407 942 639.273C942.361 640.138 942.97 640.877 943.752 641.395C944.534 641.913 945.451 642.188 946.389 642.183C947.638 642.183 948.836 641.687 949.719 640.804C950.602 639.921 951.098 638.723 951.098 637.474Z" fill="#263238"/>
<path d="M744.909 116.024C744.909 116.024 735.491 118.267 732.576 125.465C729.66 132.663 709.344 181.368 709.344 187.176C709.547 190.976 711.088 194.583 713.695 197.356L761.615 216.955C761.615 216.955 771.773 214.04 779.756 215.497C787.739 216.955 792.829 230.746 800.812 232.203C808.795 233.661 842.207 231.463 858.173 224.198C874.139 216.933 879.229 194.441 879.229 179.193C879.229 163.944 874.139 148.696 869.789 145.803L863.263 141.453" stroke="#263238" stroke-miterlimit="10"/>
<path d="M852.365 134.188C852.365 134.188 847.275 129.837 860.348 131.945C873.421 134.053 906.093 176.95 916.991 190.741C927.889 204.532 938.765 205.272 947.466 196.549C956.166 187.826 949.708 176.95 946.748 171.143C943.788 165.335 931.5 150.804 927.149 140.646C922.799 130.488 910.443 104.341 900.241 97.8158C890.038 91.2903 874.834 89.8328 851.603 99.2733C828.371 108.714 817.473 116.697 817.473 116.697" stroke="#263238" stroke-miterlimit="10"/>
<path d="M753.632 115.307L799.377 112.414" stroke="#263238" stroke-miterlimit="10"/>
<path d="M777.581 202.424C786.304 199.532 785.564 195.159 794.287 183.543C803.01 171.927 813.168 132.73 813.885 127.64C814.281 124.559 813.478 121.445 811.643 118.939L855.213 140.848" stroke="#263238" stroke-miterlimit="10"/>
<path d="M724.593 197.379H764.53C771.631 192.206 777.158 185.166 780.496 177.04C785.564 163.967 795.744 134.21 798.637 127.707C799.527 126.033 799.992 124.165 799.992 122.269C799.992 120.373 799.527 118.506 798.637 116.831" stroke="#263238" stroke-miterlimit="10"/>
<path d="M768.88 214.78C768.88 214.78 748.542 203.882 757.982 205.339C767.423 206.797 788.479 219.848 803.728 219.848C818.976 219.848 824.784 211.147 832.049 199.532C839.315 187.916 856.716 156.679 856.716 147.261" stroke="#263238" stroke-miterlimit="10"/>
<path d="M921.342 218.39C921.342 218.39 933.675 202.424 945.291 216.955C956.906 231.486 940.941 253.977 934.415 260.503C927.89 267.028 909.749 267.05 906.811 265.593C904.959 264.627 903.253 263.404 901.743 261.96" stroke="#263238" stroke-miterlimit="10"/>
<path d="M933.585 202.424L971.348 245.994C971.348 245.994 972.065 234.379 978.613 229.288C981.558 226.846 984.71 224.662 988.031 222.763L953.184 186.458" stroke="#263238" stroke-miterlimit="10"/>
<path d="M992.494 224.288H997.561C997.561 224.288 1010.63 240.276 1010.63 244.626C1010.63 248.977 990.318 278.016 983.726 278.016C977.133 278.016 967.76 272.948 967.76 272.948C967.76 272.948 971.392 267.858 974.285 262.767C977.178 257.677 974.285 250.434 974.285 250.434C974.285 250.434 987.358 259.875 985.183 272.208" stroke="#263238" stroke-miterlimit="10"/>
<path d="M778.433 313.581C791.618 316.496 815.635 316.922 820.433 319.321C826.241 322.214 839.292 358.518 839.292 358.518" stroke="#263238" stroke-miterlimit="10"/>
<path d="M767.423 219.13C767.423 219.13 760.897 223.48 764.53 229.288C768.163 235.096 776.146 238.729 776.146 238.729C776.146 238.729 765.248 250.345 767.423 255.435C768.682 258.704 768.682 262.324 767.423 265.593C767.423 265.593 765.18 272.118 765.965 275.751C766.75 279.384 767.423 285.192 767.423 285.192C767.423 285.192 763.073 306.248 771.773 311.338" stroke="#263238" stroke-miterlimit="10"/>
<path d="M967.805 272.858C967.805 272.858 954.014 285.192 953.274 300.44C952.534 315.688 951.031 320.039 951.031 320.039" stroke="#263238" stroke-miterlimit="10"/>
<path d="M1005.03 203.501C1004.1 209.563 1002.6 215.525 1000.54 221.305" stroke="#263238" stroke-miterlimit="10"/>
<path d="M1006.37 181.682C1006.51 184.821 1006.49 187.871 1006.37 190.809" stroke="#263238" stroke-miterlimit="10"/>
<path d="M897.37 91.3576C897.37 91.3576 941.658 83.3522 980.137 121.832C994.143 135.584 1003.12 153.647 1005.61 173.116" stroke="#263238" stroke-miterlimit="10"/>
<path d="M723.875 150.759C726.761 150.759 729.1 148.42 729.1 145.534C729.1 142.649 726.761 140.309 723.875 140.309C720.99 140.309 718.65 142.649 718.65 145.534C718.65 148.42 720.99 150.759 723.875 150.759Z" fill="#263238"/>
<path d="M830.95 234.984C833.836 234.984 836.175 232.645 836.175 229.759C836.175 226.874 833.836 224.534 830.95 224.534C828.064 224.534 825.725 226.874 825.725 229.759C825.725 232.645 828.064 234.984 830.95 234.984Z" fill="#263238"/>
<path d="M822.474 323.783C825.359 323.783 827.699 321.444 827.699 318.559C827.699 315.673 825.359 313.334 822.474 313.334C819.588 313.334 817.249 315.673 817.249 318.559C817.249 321.444 819.588 323.783 822.474 323.783Z" fill="#263238"/>
<path d="M922.194 190.809C922.194 189.774 921.887 188.763 921.312 187.903C920.737 187.044 919.919 186.374 918.963 185.979C918.007 185.585 916.955 185.482 915.941 185.686C914.927 185.889 913.996 186.389 913.267 187.122C912.537 187.855 912.041 188.788 911.842 189.803C911.643 190.818 911.749 191.869 912.148 192.824C912.547 193.778 913.22 194.592 914.083 195.164C914.945 195.735 915.957 196.038 916.991 196.033C917.676 196.033 918.355 195.898 918.987 195.635C919.62 195.372 920.195 194.987 920.678 194.502C921.161 194.016 921.544 193.44 921.804 192.806C922.064 192.172 922.197 191.494 922.194 190.809Z" fill="#263238"/>
<path d="M909.973 114.185C912.858 114.185 915.198 111.846 915.198 108.961C915.198 106.075 912.858 103.736 909.973 103.736C907.087 103.736 904.748 106.075 904.748 108.961C904.748 111.846 907.087 114.185 909.973 114.185Z" fill="#263238"/>
<path d="M820.119 120.688C823.005 120.688 825.344 118.349 825.344 115.464C825.344 112.578 823.005 110.239 820.119 110.239C817.234 110.239 814.895 112.578 814.895 115.464C814.895 118.349 817.234 120.688 820.119 120.688Z" fill="#263238"/>
<path d="M994.848 229.759C997.733 229.759 1000.07 227.42 1000.07 224.534C1000.07 221.649 997.733 219.31 994.848 219.31C991.962 219.31 989.623 221.649 989.623 224.534C989.623 227.42 991.962 229.759 994.848 229.759Z" fill="#263238"/>
<path d="M128.806 102.368H119.612" stroke="#263238" stroke-miterlimit="10"/>
<path d="M87.6133 207.918H128.806C130.621 207.929 132.407 207.46 133.982 206.558C135.558 205.656 136.866 204.354 137.776 202.783L162.196 160.289C163.099 158.725 163.575 156.95 163.575 155.143C163.575 153.336 163.099 151.561 162.196 149.997L137.731 107.525" stroke="#263238" stroke-miterlimit="10"/>
<path d="M111.047 102.368H79.6528C77.8359 102.361 76.0496 102.835 74.4746 103.741C72.8995 104.646 71.5916 105.952 70.6832 107.525L46.3082 149.997C45.4048 151.561 44.9292 153.336 44.9292 155.143C44.9292 156.95 45.4048 158.725 46.3082 160.289L70.8401 202.895C71.7496 204.466 73.0584 205.768 74.6337 206.67C76.2089 207.572 77.9946 208.041 79.8098 208.03" stroke="#263238" stroke-miterlimit="10"/>
<path d="M161.882 247.093L168.923 259.247C169.831 260.819 171.139 262.123 172.715 263.025C174.29 263.927 176.077 264.395 177.893 264.382H226.957C228.772 264.395 230.559 263.927 232.134 263.025C233.71 262.123 235.018 260.819 235.926 259.247L260.458 216.641C261.362 215.081 261.838 213.309 261.838 211.506C261.838 209.703 261.362 207.931 260.458 206.371L245.972 181.278" stroke="#263238" stroke-miterlimit="10"/>
<path d="M155.581 236.15L159.191 242.406" stroke="#263238" stroke-miterlimit="10"/>
<path d="M241.331 173.587L235.792 163.989C234.885 162.414 233.578 161.107 232.002 160.202C230.427 159.296 228.639 158.823 226.822 158.832H177.893C176.075 158.823 174.288 159.296 172.713 160.202C171.137 161.107 169.83 162.414 168.923 163.989L144.391 206.595C143.488 208.156 143.012 209.927 143.012 211.73C143.012 213.534 143.488 215.305 144.391 216.865L151.634 229.445" stroke="#263238" stroke-miterlimit="10"/>
<path d="M160.492 64.1572L144.391 91.9855C143.488 93.5502 143.012 95.3251 143.012 97.1319C143.012 98.9386 143.488 100.714 144.391 102.278L168.923 144.839C169.831 146.412 171.139 147.715 172.715 148.617C174.291 149.519 176.077 149.988 177.893 149.974H226.957C228.772 149.988 230.559 149.519 232.135 148.617C233.71 147.715 235.019 146.412 235.926 144.839L260.458 102.345C261.362 100.781 261.837 99.0059 261.837 97.1991C261.837 95.3924 261.362 93.6175 260.458 92.0528L258.62 89.205" stroke="#263238" stroke-miterlimit="10"/>
<path d="M168.923 49.5591L165.066 56.2415" stroke="#263238" stroke-miterlimit="10"/>
<path d="M255.996 84.5407L235.814 49.5591C234.906 47.9867 233.598 46.6831 232.022 45.781C230.447 44.879 228.66 44.4107 226.844 44.424H177.893C177.084 44.4199 176.278 44.5179 175.493 44.7155" stroke="#263238" stroke-miterlimit="10"/>
<path d="M324.95 100.955H275.886C274.07 100.942 272.284 101.41 270.708 102.312C269.133 103.214 267.824 104.518 266.916 106.09L242.452 148.517C241.548 150.081 241.073 151.856 241.073 153.663C241.073 155.47 241.548 157.245 242.452 158.809L266.984 201.415C267.891 202.988 269.2 204.291 270.775 205.193C272.351 206.095 274.138 206.564 275.953 206.55H325.017C326.832 206.561 328.618 206.092 330.193 205.19C331.769 204.288 333.077 202.986 333.987 201.415L358.496 158.809C359.4 157.245 359.875 155.47 359.875 153.663C359.875 151.856 359.4 150.081 358.496 148.517L333.875 106.023C332.961 104.471 331.655 103.187 330.089 102.297C328.523 101.408 326.751 100.945 324.95 100.955Z" stroke="#263238" stroke-miterlimit="10"/>
<path d="M226.284 275.863H177.22C175.404 275.85 173.618 276.318 172.042 277.22C170.466 278.122 169.158 279.426 168.25 280.998L143.718 323.604C142.815 325.169 142.339 326.944 142.339 328.75C142.339 330.557 142.815 332.332 143.718 333.897L168.25 376.39C169.158 377.963 170.466 379.266 172.042 380.169C173.618 381.071 175.404 381.539 177.22 381.526H226.284C228.099 381.537 229.885 381.067 231.46 380.165C233.035 379.264 234.344 377.961 235.253 376.39L259.763 333.897C260.666 332.332 261.142 330.557 261.142 328.75C261.142 326.944 260.666 325.169 259.763 323.604L235.253 280.998C234.344 279.427 233.035 278.125 231.46 277.223C229.885 276.321 228.099 275.852 226.284 275.863Z" stroke="#263238" stroke-miterlimit="10"/>
<path d="M341.88 306.382L360.604 273.935C361.508 272.374 361.984 270.603 361.984 268.8C361.984 266.996 361.508 265.225 360.604 263.664L336.072 221.059C335.166 219.484 333.858 218.177 332.283 217.271C330.707 216.365 328.92 215.892 327.103 215.901H278.106C276.289 215.892 274.502 216.365 272.926 217.271C271.351 218.177 270.043 219.484 269.137 221.059L244.605 263.664C243.701 265.225 243.225 266.996 243.225 268.8C243.225 270.603 243.701 272.374 244.605 273.935L269.137 316.54C270.043 318.115 271.351 319.422 272.926 320.328C274.502 321.234 276.289 321.707 278.106 321.698H317.393" stroke="#263238" stroke-miterlimit="10"/>
<path d="M327.17 321.586C328.987 321.595 330.774 321.122 332.35 320.216C333.925 319.31 335.233 318.003 336.14 316.428L337.62 313.872" stroke="#263238" stroke-miterlimit="10"/>
<path d="M226.8 227.472L232.787 228.817L234.177 222.763L228.437 221.462C228.437 221.283 228.437 221.104 228.437 220.947C228.445 219.103 228.071 217.278 227.338 215.587L232.002 211.865L228.123 206.999L223.638 210.564C222.088 209.208 220.246 208.226 218.256 207.694V201.864H212.022V207.425C209.981 207.839 208.058 208.705 206.394 209.959L201.909 206.371L198.075 211.259L202.559 214.78C201.627 216.616 201.128 218.641 201.102 220.7L195.361 222.023L196.752 228.077L202.402 226.777C203.252 228.601 204.492 230.217 206.035 231.508L203.412 236.957L209.018 239.671L211.596 234.289C212.653 234.55 213.737 234.685 214.825 234.693C215.699 234.684 216.57 234.594 217.427 234.423L220.118 239.985L225.724 237.294L223.1 231.89C224.634 230.698 225.896 229.192 226.8 227.472ZM208.614 220.947C208.614 219.74 208.972 218.561 209.642 217.558C210.312 216.555 211.265 215.773 212.379 215.311C213.494 214.85 214.72 214.729 215.903 214.964C217.086 215.2 218.173 215.781 219.026 216.634C219.879 217.487 220.46 218.573 220.695 219.757C220.931 220.94 220.81 222.166 220.348 223.281C219.887 224.395 219.105 225.348 218.102 226.018C217.099 226.688 215.92 227.046 214.713 227.046C213.096 227.046 211.544 226.403 210.4 225.259C209.257 224.116 208.614 222.564 208.614 220.947Z" stroke="#263238" stroke-miterlimit="10"/>
<path d="M197.649 202.94L203.613 204.308L205.004 198.253L199.263 196.93C199.263 196.751 199.263 196.594 199.263 196.415C199.266 194.574 198.9 192.752 198.187 191.055L202.829 187.355L198.949 182.489L194.464 186.032C192.9 184.684 191.053 183.703 189.06 183.162V177.377H182.893V182.938C180.849 183.342 178.924 184.209 177.265 185.472L172.78 181.884L168.923 186.75L173.408 190.248C172.477 192.092 171.978 194.125 171.951 196.19L166.21 197.491L167.6 203.545L173.251 202.267C174.107 204.081 175.346 205.688 176.884 206.976L174.26 212.448L179.866 215.139L182.445 209.757C183.5 210.029 184.585 210.165 185.674 210.161C186.547 210.16 187.418 210.077 188.275 209.914L190.966 215.475L196.572 212.784L193.971 207.358C195.496 206.162 196.749 204.656 197.649 202.94ZM179.44 196.415C179.44 195.208 179.798 194.029 180.468 193.026C181.138 192.023 182.091 191.241 183.205 190.78C184.32 190.318 185.546 190.197 186.729 190.432C187.913 190.668 188.999 191.249 189.852 192.102C190.705 192.955 191.286 194.041 191.522 195.225C191.757 196.408 191.636 197.634 191.175 198.749C190.713 199.863 189.931 200.816 188.928 201.486C187.925 202.156 186.746 202.514 185.54 202.514C183.922 202.514 182.37 201.871 181.227 200.727C180.083 199.584 179.44 198.032 179.44 196.415Z" stroke="#263238" stroke-miterlimit="10"/>
<path d="M312.597 157.144C316.862 146.913 312.026 135.162 301.795 130.897C291.564 126.632 279.813 131.468 275.548 141.699C271.283 151.93 276.119 163.681 286.35 167.946C296.581 172.211 308.332 167.375 312.597 157.144Z" stroke="#263238" stroke-miterlimit="10"/>
<path d="M294.072 166.478C303.484 166.478 311.114 158.848 311.114 149.436C311.114 140.024 303.484 132.394 294.072 132.394C284.66 132.394 277.03 140.024 277.03 149.436C277.03 158.848 284.66 166.478 294.072 166.478Z" stroke="#263238" stroke-miterlimit="10"/>
<path d="M316.653 170.649L329.951 181.682" stroke="#263238" stroke-width="3" stroke-miterlimit="10"/>
<path d="M308.67 164.034L316.653 170.649" stroke="#263238" stroke-width="2" stroke-miterlimit="10"/>
<path d="M73.7778 141.722H133.426" stroke="#263238" stroke-miterlimit="10"/>
<path d="M86.5372 138.426H80.3706V144.592H86.5372V138.426Z" fill="#263238"/>
<path d="M73.7778 155.692H133.426" stroke="#263238" stroke-miterlimit="10"/>
<path d="M118.401 152.418H112.235V158.585H118.401V152.418Z" fill="#263238"/>
<path d="M73.7778 169.685H133.426" stroke="#263238" stroke-miterlimit="10"/>
<path d="M104.207 166.389H98.0405V172.555H104.207V166.389Z" fill="#263238"/>
<path d="M301.225 325.936C303.826 325.936 305.934 323.828 305.934 321.227C305.934 318.626 303.826 316.518 301.225 316.518C298.624 316.518 296.516 318.626 296.516 321.227C296.516 323.828 298.624 325.936 301.225 325.936Z" fill="#263238"/>
<path d="M337.956 229.154C340.557 229.154 342.665 227.045 342.665 224.445C342.665 221.844 340.557 219.736 337.956 219.736C335.355 219.736 333.247 221.844 333.247 224.445C333.247 227.045 335.355 229.154 337.956 229.154Z" fill="#263238"/>
<path d="M199.779 159.863C199.783 158.926 199.509 158.008 198.991 157.226C198.473 156.445 197.734 155.835 196.868 155.474C196.003 155.113 195.05 155.017 194.13 155.199C193.21 155.381 192.365 155.832 191.702 156.495C191.039 157.158 190.588 158.003 190.406 158.923C190.224 159.843 190.319 160.796 190.68 161.662C191.041 162.527 191.651 163.266 192.433 163.784C193.214 164.303 194.132 164.577 195.07 164.572C196.319 164.572 197.516 164.076 198.4 163.193C199.283 162.31 199.779 161.112 199.779 159.863Z" fill="#263238"/>
<path d="M250.076 66.6912C250.076 65.7598 249.8 64.8493 249.282 64.0749C248.765 63.3005 248.029 62.697 247.169 62.3405C246.308 61.9841 245.362 61.8909 244.448 62.0726C243.535 62.2543 242.696 62.7028 242.037 63.3613C241.378 64.0199 240.93 64.859 240.748 65.7725C240.566 66.6859 240.66 67.6328 241.016 68.4932C241.373 69.3537 241.976 70.0892 242.751 70.6066C243.525 71.124 244.435 71.4002 245.367 71.4002C246.614 71.3943 247.808 70.8963 248.69 70.0144C249.572 69.1326 250.07 67.9383 250.076 66.6912Z" fill="#263238"/>
<path d="M68.8892 191.863C68.8936 190.925 68.6193 190.007 68.1011 189.225C67.5829 188.444 66.8442 187.834 65.9787 187.473C65.1133 187.112 64.1601 187.017 63.2402 187.198C62.3203 187.38 61.4751 187.831 60.8121 188.494C60.149 189.158 59.6979 190.003 59.5161 190.923C59.3342 191.842 59.4298 192.796 59.7907 193.661C60.1516 194.527 60.7615 195.265 61.543 195.784C62.3246 196.302 63.2424 196.576 64.1801 196.572C65.429 196.572 66.6268 196.075 67.5099 195.192C68.3931 194.309 68.8892 193.111 68.8892 191.863Z" fill="#263238"/>
<path d="M215.207 263.889C215.207 262.957 214.931 262.047 214.413 261.272C213.896 260.498 213.16 259.894 212.3 259.538C211.439 259.182 210.492 259.088 209.579 259.27C208.665 259.452 207.826 259.9 207.168 260.559C206.509 261.217 206.061 262.057 205.879 262.97C205.697 263.883 205.791 264.83 206.147 265.691C206.503 266.551 207.107 267.287 207.881 267.804C208.656 268.322 209.566 268.598 210.498 268.598C211.745 268.592 212.939 268.094 213.821 267.212C214.703 266.33 215.201 265.136 215.207 263.889Z" fill="#263238"/>
<path d="M153.899 342.261C153.899 341.33 153.623 340.419 153.105 339.645C152.588 338.87 151.853 338.267 150.992 337.91C150.132 337.554 149.185 337.461 148.271 337.642C147.358 337.824 146.519 338.273 145.86 338.931C145.202 339.59 144.753 340.429 144.571 341.342C144.39 342.256 144.483 343.203 144.839 344.063C145.196 344.923 145.799 345.659 146.574 346.176C147.348 346.694 148.259 346.97 149.19 346.97C150.439 346.97 151.637 346.474 152.52 345.591C153.403 344.708 153.899 343.51 153.899 342.261Z" fill="#263238"/>
<path d="M249.314 310.284C251.914 310.284 254.023 308.176 254.023 305.575C254.023 302.974 251.914 300.866 249.314 300.866C246.713 300.866 244.604 302.974 244.604 305.575C244.604 308.176 246.713 310.284 249.314 310.284Z" fill="#263238"/>
<path d="M344.818 130.847C347.419 130.847 349.527 128.738 349.527 126.137C349.527 123.537 347.419 121.428 344.818 121.428C342.217 121.428 340.109 123.537 340.109 126.137C340.109 128.738 342.217 130.847 344.818 130.847Z" fill="#263238"/>
<path d="M286.672 206.147C286.681 205.209 286.411 204.29 285.897 203.506C285.382 202.722 284.646 202.108 283.783 201.743C282.919 201.378 281.966 201.278 281.045 201.456C280.125 201.633 279.277 202.08 278.611 202.74C277.945 203.4 277.49 204.243 277.304 205.162C277.117 206.081 277.209 207.035 277.565 207.902C277.922 208.769 278.528 209.511 279.307 210.033C280.087 210.555 281.003 210.833 281.941 210.833C282.559 210.836 283.172 210.717 283.745 210.483C284.317 210.249 284.838 209.905 285.277 209.47C285.717 209.035 286.066 208.517 286.305 207.947C286.545 207.377 286.669 206.765 286.672 206.147Z" fill="#263238"/>
<path d="M157.487 117.549C157.487 116.612 157.209 115.697 156.688 114.918C156.167 114.139 155.427 113.533 154.561 113.176C153.695 112.818 152.742 112.726 151.824 112.91C150.906 113.095 150.063 113.547 149.402 114.211C148.741 114.875 148.292 115.72 148.112 116.64C147.932 117.559 148.029 118.511 148.391 119.375C148.752 120.239 149.362 120.977 150.143 121.494C150.924 122.011 151.841 122.285 152.778 122.28C153.398 122.28 154.012 122.158 154.585 121.92C155.158 121.682 155.678 121.333 156.116 120.893C156.553 120.454 156.9 119.932 157.135 119.358C157.37 118.784 157.49 118.169 157.487 117.549Z" fill="#263238"/>
<path d="M32.4278 864.159V740.603C32.4248 739.226 32.6935 737.861 33.2185 736.588C33.7434 735.315 34.5143 734.158 35.487 733.183C36.4597 732.208 37.6152 731.435 38.8871 730.907C40.1591 730.38 41.5227 730.108 42.8998 730.108H233.034C235.817 730.108 238.486 731.214 240.454 733.182C242.423 735.15 243.528 737.819 243.528 740.603V864.698" stroke="#263238" stroke-miterlimit="10"/>
<path d="M111.472 878.309H101.561" stroke="#263238" stroke-miterlimit="10"/>
<path d="M89.0484 878.309H23.8391C22.575 878.315 21.3222 878.071 20.1526 877.591C18.9829 877.112 17.9196 876.406 17.0237 875.514C16.1277 874.622 15.4167 873.562 14.9316 872.395C14.4465 871.227 14.1968 869.976 14.1968 868.712V864.227H261.692V868.712C261.692 871.253 260.683 873.691 258.888 875.49C257.093 877.289 254.658 878.303 252.117 878.309H120.868" stroke="#263238" stroke-miterlimit="10"/>
<path d="M122.954 737.889H133.381" stroke="#263238" stroke-miterlimit="10"/>
<path d="M141.207 737.889H236.711V862.612H39.4688V737.889H108.871" stroke="#263238" stroke-miterlimit="10"/>
<path d="M73.688 729.391C73.6924 728.453 73.4182 727.535 72.9 726.754C72.3818 725.972 71.643 725.362 70.7776 725.001C69.9121 724.64 68.9589 724.545 68.039 724.727C67.1191 724.908 66.274 725.359 65.6109 726.023C64.9479 726.686 64.4968 727.531 64.3149 728.451C64.1331 729.371 64.2287 730.324 64.5896 731.189C64.9504 732.055 65.5604 732.793 66.3419 733.312C67.1234 733.83 68.0413 734.104 68.979 734.1C70.2261 734.094 71.4204 733.596 72.3022 732.714C73.1841 731.832 73.6821 730.638 73.688 729.391Z" fill="#263238"/>
<path d="M259.965 864.518C259.965 863.582 259.687 862.666 259.166 861.887C258.645 861.109 257.905 860.502 257.039 860.145C256.173 859.787 255.221 859.695 254.302 859.879C253.384 860.064 252.541 860.517 251.88 861.181C251.219 861.845 250.77 862.69 250.59 863.609C250.41 864.528 250.507 865.48 250.869 866.345C251.23 867.209 251.84 867.946 252.621 868.463C253.402 868.981 254.319 869.254 255.256 869.25C255.876 869.25 256.49 869.127 257.063 868.889C257.636 868.651 258.156 868.302 258.594 867.863C259.031 867.423 259.378 866.901 259.613 866.327C259.848 865.753 259.968 865.139 259.965 864.518Z" fill="#263238"/>
<path d="M225.252 738.427C225.257 737.491 224.983 736.574 224.466 735.793C223.949 735.012 223.211 734.402 222.347 734.04C221.483 733.679 220.531 733.582 219.612 733.762C218.692 733.942 217.847 734.391 217.183 735.051C216.519 735.712 216.067 736.555 215.882 737.474C215.698 738.392 215.79 739.345 216.148 740.211C216.505 741.076 217.111 741.817 217.89 742.338C218.669 742.858 219.584 743.137 220.521 743.137C221.772 743.137 222.972 742.641 223.859 741.759C224.745 740.876 225.247 739.678 225.252 738.427Z" fill="#263238"/>
<path d="M54.5601 877.726C54.5601 876.79 54.2826 875.876 53.7627 875.097C53.2428 874.319 52.5039 873.713 51.6393 873.355C50.7748 872.997 49.8234 872.903 48.9056 873.086C47.9878 873.268 47.1447 873.719 46.483 874.38C45.8213 875.042 45.3706 875.885 45.1881 876.803C45.0055 877.721 45.0992 878.672 45.4573 879.537C45.8154 880.401 46.4219 881.14 47.2 881.66C47.9781 882.18 48.8929 882.458 49.8287 882.458C50.4508 882.461 51.0674 882.34 51.6428 882.103C52.2182 881.867 52.741 881.518 53.1809 881.078C53.6209 880.638 53.9693 880.116 54.206 879.54C54.4428 878.965 54.5631 878.348 54.5601 877.726Z" fill="#263238"/>
<path d="M194.621 652.072C194.621 653.69 193.979 655.241 192.835 656.385C191.691 657.529 190.139 658.172 188.522 658.172H85.7522C84.1345 658.172 82.5832 657.529 81.4393 656.385C80.2954 655.241 79.6528 653.69 79.6528 652.072V460.458C79.6528 458.841 80.2954 457.289 81.4393 456.146C82.5832 455.002 84.1345 454.359 85.7522 454.359H188.522C190.139 454.359 191.691 455.002 192.835 456.146C193.979 457.289 194.621 458.841 194.621 460.458V633.326" stroke="#263238" stroke-miterlimit="10"/>
<path d="M164.932 472.859H187.759V639.672H86.4922V614.512" stroke="#263238" stroke-miterlimit="10"/>
<path d="M143.763 472.859H155.513" stroke="#263238" stroke-miterlimit="10"/>
<path d="M86.4922 602.762V472.859H134.345" stroke="#263238" stroke-miterlimit="10"/>
<path d="M140.714 647.206C140.714 646.461 140.493 645.733 140.079 645.113C139.665 644.494 139.077 644.011 138.388 643.726C137.7 643.441 136.942 643.366 136.211 643.511C135.481 643.657 134.809 644.016 134.283 644.542C133.756 645.069 133.397 645.741 133.252 646.471C133.106 647.202 133.181 647.96 133.466 648.648C133.751 649.336 134.234 649.925 134.853 650.339C135.473 650.753 136.201 650.974 136.946 650.974C137.946 650.974 138.904 650.577 139.61 649.87C140.317 649.164 140.714 648.206 140.714 647.206Z" stroke="#263238" stroke-miterlimit="10"/>
<path d="M138.718 455.256C138.722 454.318 138.448 453.4 137.93 452.619C137.412 451.837 136.673 451.228 135.807 450.867C134.942 450.506 133.989 450.41 133.069 450.592C132.149 450.774 131.304 451.225 130.641 451.888C129.978 452.551 129.527 453.396 129.345 454.316C129.163 455.236 129.258 456.189 129.619 457.055C129.98 457.92 130.59 458.659 131.372 459.177C132.153 459.695 133.071 459.97 134.009 459.965C135.258 459.965 136.455 459.469 137.339 458.586C138.222 457.703 138.718 456.505 138.718 455.256Z" fill="#263238"/>
<path d="M171.995 638.82C172 637.883 171.726 636.966 171.209 636.185C170.691 635.404 169.954 634.794 169.09 634.432C168.226 634.071 167.274 633.974 166.354 634.154C165.435 634.334 164.59 634.783 163.926 635.444C163.262 636.104 162.809 636.948 162.625 637.866C162.44 638.784 162.533 639.737 162.89 640.603C163.248 641.469 163.854 642.209 164.633 642.73C165.411 643.251 166.327 643.529 167.264 643.529C168.515 643.529 169.715 643.033 170.601 642.151C171.488 641.268 171.989 640.071 171.995 638.82Z" fill="#263238"/>
<path d="M194.689 554.191C197.289 554.191 199.398 552.083 199.398 549.482C199.398 546.881 197.289 544.773 194.689 544.773C192.088 544.773 189.979 546.881 189.979 549.482C189.979 552.083 192.088 554.191 194.689 554.191Z" fill="#263238"/>
<path d="M106.943 656.826C106.943 655.89 106.665 654.974 106.144 654.195C105.623 653.417 104.883 652.81 104.017 652.453C103.151 652.095 102.199 652.003 101.28 652.187C100.362 652.372 99.5187 652.825 98.8579 653.489C98.1971 654.153 97.7482 654.998 97.5682 655.917C97.3882 656.836 97.4851 657.788 97.8466 658.652C98.2082 659.517 98.8181 660.254 99.5991 660.771C100.38 661.288 101.297 661.562 102.234 661.558C102.854 661.558 103.468 661.435 104.041 661.197C104.614 660.959 105.134 660.61 105.572 660.171C106.009 659.731 106.356 659.209 106.591 658.635C106.826 658.061 106.946 657.447 106.943 656.826Z" fill="#263238"/>
<path d="M104.588 471.895C104.593 470.957 104.319 470.039 103.8 469.258C103.282 468.476 102.543 467.866 101.678 467.505C100.812 467.144 99.8593 467.049 98.9394 467.231C98.0195 467.413 97.1744 467.864 96.5113 468.527C95.8483 469.19 95.3972 470.035 95.2153 470.955C95.0335 471.875 95.1291 472.828 95.4899 473.693C95.8508 474.559 96.4608 475.298 97.2423 475.816C98.0238 476.334 98.9417 476.608 99.8793 476.604C101.128 476.604 102.326 476.108 103.209 475.225C104.092 474.341 104.588 473.144 104.588 471.895Z" fill="#263238"/>
<path d="M673.847 31.6198H541.41C540.457 31.6198 539.513 31.8079 538.633 32.1733C537.753 32.5387 536.953 33.0742 536.281 33.7492C535.608 34.4241 535.075 35.2252 534.712 36.1066C534.349 36.9879 534.164 37.9322 534.167 38.8852V106.651C534.164 107.603 534.349 108.546 534.712 109.426C535.075 110.306 535.609 111.106 536.282 111.779C536.955 112.452 537.755 112.986 538.635 113.349C539.515 113.712 540.458 113.897 541.41 113.894H613.84L602.628 147.216L630.949 113.894H673.757C675.678 113.894 677.52 113.131 678.879 111.772C680.237 110.414 681 108.572 681 106.651V38.8852C681 36.9776 680.25 35.1464 678.912 33.7871C677.573 32.4277 675.754 31.6493 673.847 31.6198Z" stroke="#263238" stroke-miterlimit="10"/>
<path d="M637.946 55.0306H663.98" stroke="#263238" stroke-miterlimit="10"/>
<path d="M620.275 55.0306H630.972" stroke="#263238" stroke-miterlimit="10"/>
<path d="M577.064 55.0306H610.05" stroke="#263238" stroke-miterlimit="10"/>
<path d="M555.784 55.0306H568.7" stroke="#263238" stroke-miterlimit="10"/>
<path d="M656.064 72.1178H663.98" stroke="#263238" stroke-miterlimit="10"/>
<path d="M586.819 72.1178H650.481" stroke="#263238" stroke-miterlimit="10"/>
<path d="M555.784 72.1178H580.316" stroke="#263238" stroke-miterlimit="10"/>
<path d="M654.203 89.205H663.98" stroke="#263238" stroke-miterlimit="10"/>
<path d="M633.752 89.205H643.978" stroke="#263238" stroke-miterlimit="10"/>
<path d="M576.593 89.205H624.917" stroke="#263238" stroke-miterlimit="10"/>
<path d="M555.784 89.205H571.032" stroke="#263238" stroke-miterlimit="10"/>
<path d="M647.924 708.021H393.926V820.679H647.924V708.021Z" fill="#263238" stroke="#263238" stroke-miterlimit="10"/>
<path d="M540.401 711.81H501.988V726.498H540.401V711.81Z" fill="white" stroke="#263238" stroke-miterlimit="10"/>
<path d="M693.804 412.83C693.804 410.161 687.75 406.102 678.354 400.743C668.958 395.384 580.293 355.065 580.293 355.065L527.888 352.352V351.702L521.834 352.038L515.802 351.702V352.352L463.397 355.065C463.397 355.065 374.732 395.429 365.336 400.743C355.94 406.058 349.886 410.161 349.886 412.83C349.886 415.498 389.24 668.285 389.958 675.371C390.675 682.457 389.958 702.885 389.958 707.819C389.958 712.752 400.542 715.577 400.542 715.577H643.148C643.148 715.577 653.732 712.752 653.732 707.819C653.732 702.885 653.037 682.435 653.732 675.371C654.428 668.307 693.804 415.521 693.804 412.83Z" fill="#BFE5F2" stroke="#263238" stroke-miterlimit="10"/>
<path d="M678.354 400.743C668.958 395.384 580.293 355.065 580.293 355.065L527.888 352.352V351.702L521.834 352.038L515.802 351.702V352.352L463.397 355.065C463.397 355.065 374.732 395.429 365.336 400.743C355.94 406.058 349.886 410.161 349.886 412.83C349.886 413.749 354.371 442.856 360.246 481.403L363.049 483.645C363.049 483.645 378.88 429.827 426.374 407.672C473.869 385.517 492.839 379.171 538.742 379.171C581.796 379.171 659.607 441.779 683.512 480.909C689.387 442.586 693.804 413.637 693.804 412.762C693.804 410.161 687.75 406.125 678.354 400.743Z" fill="#263238" stroke="#263238" stroke-miterlimit="10"/>
<path d="M494.297 404.107L519.838 428.953L486.247 659.36L520.331 711.653L559.596 658.732L533.943 428.28L558.116 402.761L527.215 369.843L494.297 404.107Z" fill="#263238" stroke="#263238" stroke-miterlimit="10"/>
<path d="M573.275 160.648C565.942 159.078 549.617 155.76 536.544 153.136V149.346L527.126 151.23L517.73 149.346V153.136C504.657 155.76 488.31 159.078 480.999 160.648C467.814 163.474 459.809 163.474 459.809 176.659C459.809 176.659 463.576 271.289 465.459 280.236C467.343 289.183 468.756 300.933 474.878 306.113C480.999 311.293 481.47 313.177 481.47 313.177V341.431C481.47 341.431 504.074 389.912 508.379 393.231C513.642 397.682 520.312 400.124 527.204 400.124C534.097 400.124 540.767 397.682 546.029 393.231C550.267 389.935 572.938 341.431 572.938 341.431V313.177C572.938 313.177 573.409 311.293 579.531 306.113C585.653 300.933 587.065 289.183 588.949 280.236C590.833 271.289 594.6 176.659 594.6 176.659C594.465 163.474 586.46 163.474 573.275 160.648Z" fill="white" stroke="#263238" stroke-miterlimit="10"/>
<path d="M486.65 175.717C486.65 175.717 533.248 195.002 546.433 195.002C559.618 195.002 545.02 188.903 545.02 188.903C545.02 188.903 563.386 195.002 570.449 195.002H577.513C577.513 195.002 578.455 208.187 579.396 209.6C580.338 211.013 579.867 212.896 581.28 213.838C582.45 214.694 583.552 215.638 584.576 216.664C584.576 216.664 587.873 267.992 589.756 273.172C591.64 278.352 594.981 197.379 594.981 197.379C597.268 194.864 598.963 191.869 599.941 188.613C600.919 185.357 601.155 181.924 600.632 178.565C599.219 166.321 572.849 146.072 545.065 136.654C535.234 133.13 524.636 132.311 514.38 134.283C504.124 136.256 494.586 140.947 486.763 147.866C477.344 156.343 475.932 160.11 475.932 160.11C475.932 160.11 461.334 159.168 458.979 164.819C456.625 170.47 466.514 270.75 466.514 270.75L468.868 216.596C468.868 216.596 476.403 208.591 476.874 204.353C477.344 200.115 482.053 181.301 482.053 181.301C482.053 181.301 489.117 185.539 491.023 184.126C492.929 182.713 486.65 175.717 486.65 175.717Z" fill="#263238" stroke="#263238" stroke-miterlimit="10"/>
<path d="M463.576 241.622C463.576 241.622 460.75 237.383 457.454 240.209C454.158 243.034 451.332 261.871 453.216 266.58C455.1 271.289 457.925 278.352 460.28 278.823C462.029 279.204 463.759 279.676 465.46 280.236L463.576 241.622Z" fill="#263238" stroke="#263238" stroke-miterlimit="10"/>
<path d="M591.034 241.622C591.034 241.622 593.86 237.383 597.156 240.209C600.453 243.034 603.278 261.871 601.394 266.58C599.511 271.289 596.685 278.352 594.331 278.823C592.581 279.204 590.852 279.676 589.151 280.236L591.034 241.622Z" fill="#263238" stroke="#263238" stroke-miterlimit="10"/>
<path d="M476.761 213.367C476.761 213.367 481.47 204.398 489.476 203.478C497.481 202.559 516.385 207.245 514.905 213.367C513.425 219.489 476.761 213.367 476.761 213.367Z" fill="#263238" stroke="#263238" stroke-miterlimit="10"/>
<path d="M577.58 213.367C577.58 213.367 572.871 204.398 564.866 203.478C556.86 202.559 537.957 207.245 539.459 213.367C540.962 219.489 577.58 213.367 577.58 213.367Z" fill="#263238" stroke="#263238" stroke-miterlimit="10"/>
<path d="M515.577 241.622H476.133C474.823 241.622 473.566 241.103 472.637 240.178C471.708 239.253 471.183 237.999 471.178 236.688L469.271 216.91C469.271 215.6 469.791 214.343 470.715 213.414C471.64 212.485 472.894 211.96 474.205 211.954H517.528C518.178 211.954 518.821 212.083 519.421 212.332C520.021 212.581 520.566 212.947 521.024 213.407C521.483 213.868 521.846 214.414 522.092 215.015C522.339 215.617 522.464 216.26 522.461 216.91L520.555 236.688C520.555 237.34 520.426 237.985 520.176 238.587C519.925 239.188 519.558 239.734 519.095 240.193C518.632 240.651 518.083 241.014 517.479 241.259C516.875 241.504 516.229 241.627 515.577 241.622Z" fill="white" stroke="#263238" stroke-miterlimit="10"/>
<path d="M576.772 241.622H537.284C535.975 241.622 534.72 241.102 533.795 240.177C532.87 239.251 532.35 237.997 532.35 236.688L530.422 216.91C530.422 215.596 530.944 214.335 531.873 213.406C532.803 212.477 534.063 211.954 535.378 211.954H578.679C579.993 211.954 581.253 212.477 582.183 213.406C583.112 214.335 583.634 215.596 583.634 216.91L581.728 236.688C581.722 237.999 581.198 239.253 580.269 240.178C579.34 241.103 578.083 241.622 576.772 241.622Z" fill="white" stroke="#263238" stroke-miterlimit="10"/>
<path d="M535.378 211.954H517.483" stroke="#263238" stroke-miterlimit="10"/>
<path d="M522.417 216.91H530.422" stroke="#263238" stroke-miterlimit="10"/>
<path d="M521.946 220.902C521.946 220.902 515.375 244.447 515.375 247.272C515.359 248.061 515.573 248.838 515.991 249.507C516.41 250.176 517.014 250.709 517.73 251.04C517.73 251.04 519.972 243.034 522.417 242.07C524.861 241.106 532.306 241.599 532.306 241.599L537.015 251.017C537.604 250.463 538.076 249.797 538.403 249.057C538.731 248.318 538.907 247.52 538.921 246.712C539.392 243.416 530.915 220.341 530.915 220.341C530.915 220.341 524.3 218.547 521.946 220.902Z" fill="#263238" stroke="#263238" stroke-miterlimit="10"/>
<path d="M503.76 323.492C504.944 323.889 506.149 324.218 507.37 324.479" stroke="#263238" stroke-miterlimit="10"/>
<path d="M481.47 313.177C487.298 316.368 493.285 319.257 499.409 321.833" stroke="#263238" stroke-miterlimit="10"/>
<path d="M572.803 311.742C572.803 311.742 561.973 321.16 552.083 322.573" stroke="#263238" stroke-miterlimit="10"/>
<path d="M504.544 280.707C512.762 278.986 521.097 277.885 529.48 277.41C536.252 277.791 542.924 279.221 549.258 281.649C549.258 281.649 539.369 267.992 535.602 266.58C531.835 265.167 521.475 266.58 518.201 266.58C514.927 266.58 504.544 280.707 504.544 280.707Z" fill="#263238" stroke="#263238" stroke-linejoin="round"/>
<path d="M540.782 290.035C540.782 290.035 523.358 289.564 517.259 290.035C511.16 290.506 510.195 298.041 510.195 298.041C516.041 296.307 522.055 295.202 528.135 294.744C533.997 295.054 539.824 295.841 545.558 297.099C545.558 297.099 546.433 293.332 540.782 290.035Z" fill="#263238" stroke="#263238" stroke-linejoin="round"/>
<path d="M349.886 412.83L280.012 597.559L342.486 626.442L376.75 560.627L349.886 412.83Z" fill="#BFE5F2" stroke="#263238" stroke-miterlimit="10"/>
<path d="M365.717 581.84C363.318 577.624 359.752 571.727 354.505 563.901C347.357 553.143 339.014 543.228 329.637 534.346C334.637 536.195 339.378 538.682 343.741 541.746C353.16 547.778 358.519 551.141 356.501 543.091C354.483 535.041 335.018 508.827 333.673 504.118C332.328 499.409 340.4 498.759 342.396 490.664C344.01 484.228 349.93 442.542 352.218 426.127L349.796 412.673L279.945 597.402L297.368 605.475H319.568L359.64 593.187L365.717 581.84Z" fill="#263238" stroke="#263238" stroke-miterlimit="10"/>
<path d="M355.918 576.077C355.918 576.077 327.708 574.104 316.922 574.104C306.136 574.104 290.013 575.449 284.004 585.518C277.994 595.586 275.953 627.159 284.004 644.628C292.054 662.096 314.904 666.805 327.663 666.132C340.423 665.46 364.618 646.646 368.027 637.25C371.435 627.854 367.354 606.35 363.99 594.913C362.114 588.316 359.401 581.986 355.918 576.077Z" fill="#BFE5F2" stroke="#263238" stroke-miterlimit="10"/>
<path d="M355.917 576.077C355.917 576.077 332.417 580.764 332.417 595.541C332.417 610.319 339.817 625.096 348.54 627.787C357.263 630.478 369.372 622.428 369.372 622.428C369.372 622.428 377.422 617.046 374.059 600.923C370.695 584.8 361.972 576.75 355.917 576.077Z" fill="#BFE5F2" stroke="#263238" stroke-miterlimit="10"/>
<path d="M372.04 548.518C372.04 548.518 379.44 537.104 381.459 534.413C383.477 531.722 390.854 524.345 394.913 517.617C398.972 510.89 403.636 504.163 404.981 513.604C406.327 523.044 396.931 533.068 394.913 535.759L384.845 549.213C384.845 549.213 371.368 556.591 372.04 548.518Z" fill="white" stroke="#263238" stroke-miterlimit="10"/>
<path d="M353.249 588.164C353.249 588.164 357.936 561.255 361.972 555.918C366.008 550.581 394.891 531.745 400.945 528.381C407 525.017 445.278 525.69 445.278 525.69C445.278 525.69 455.346 528.381 449.291 532.417C443.237 536.454 428.482 535.086 428.482 535.086L405.632 546.522L428.482 541.813L451.31 545.177C451.31 545.177 456.019 549.191 454.001 552.554C451.982 555.918 437.878 555.918 437.878 555.918H427.136L402.268 567.376L429.827 563.34C429.827 563.34 447.273 559.999 447.946 564.686C448.619 569.372 443.259 573.431 439.896 573.431C435.793 573.954 431.747 574.855 427.809 576.122L411.103 582.109L436.622 578.073C436.622 578.073 437.967 582.109 435.949 584.127C433.931 586.145 409.04 595.541 409.04 595.541C409.04 595.541 385.54 604.959 382.131 607.65C378.723 610.341 372.713 617.719 361.299 616.373C349.885 615.028 350.558 592.2 353.249 588.164Z" fill="white" stroke="#263238" stroke-miterlimit="10"/>
<path d="M411.013 582.109L402.268 585.473" stroke="#263238" stroke-miterlimit="10"/>
<path d="M405.632 546.522L396.236 549.863" stroke="#263238" stroke-miterlimit="10"/>
<path d="M693.692 412.83L763.543 597.559L701.069 626.442L666.828 560.627L693.692 412.83Z" fill="#BFE5F2" stroke="#263238" stroke-miterlimit="10"/>
<path d="M677.95 581.84C680.35 577.624 683.915 571.727 689.162 563.901C696.251 553.177 704.526 543.285 713.829 534.413C708.828 536.262 704.087 538.749 699.724 541.813C690.306 547.845 684.947 551.209 686.942 543.159C688.938 535.108 708.447 508.894 709.792 504.185C711.138 499.476 703.065 498.826 701.069 490.731C699.455 484.295 693.535 442.609 691.248 426.194L693.67 412.74L763.521 597.47L746.097 605.542H723.897L683.825 593.254L677.95 581.84Z" fill="#263238" stroke="#263238" stroke-miterlimit="10"/>
<path d="M480.192 329.547L513.111 386.638L485.574 426.957L460.055 354.392L480.192 329.547Z" fill="#BFE5F2" stroke="#263238" stroke-miterlimit="10"/>
<path d="M573.566 329.547L540.647 386.638L568.184 426.957L593.725 354.392L573.566 329.547Z" fill="#BFE5F2" stroke="#263238" stroke-miterlimit="10"/>
<path d="M687.637 576.077C687.637 576.077 715.869 574.059 726.61 574.059C737.352 574.059 753.519 575.404 759.529 585.473C765.539 595.541 767.579 627.114 759.529 644.583C751.479 662.051 728.629 666.76 715.869 666.087C703.11 665.415 678.914 646.601 675.506 637.205C672.097 627.81 676.179 606.305 679.542 594.869C681.436 588.288 684.156 581.974 687.637 576.077Z" fill="#BFE5F2" stroke="#263238" stroke-miterlimit="10"/>
<path d="M687.638 576.077C687.638 576.077 711.161 580.764 711.161 595.541C711.161 610.319 703.761 625.096 695.038 627.787C686.315 630.478 674.206 622.428 674.206 622.428C674.206 622.428 666.155 617.046 669.519 600.923C672.883 584.8 681.606 576.75 687.638 576.077Z" fill="#BFE5F2" stroke="#263238" stroke-miterlimit="10"/>
<path d="M671.537 548.518C671.537 548.518 664.137 537.104 662.119 534.413C660.101 531.722 652.723 524.345 648.664 517.617C644.606 510.89 639.942 504.163 638.596 513.604C637.251 523.044 646.646 533.068 648.664 535.759L658.733 549.213C658.733 549.213 672.187 556.591 671.537 548.518Z" fill="white" stroke="#263238" stroke-miterlimit="10"/>
<path d="M690.328 588.164C690.328 588.164 685.642 561.255 681.605 555.918C677.569 550.581 648.799 531.745 642.632 528.381C636.465 525.017 598.3 525.69 598.3 525.69C598.3 525.69 588.231 528.381 594.286 532.417C600.34 536.454 615.163 535.086 615.163 535.086L638.013 546.522L615.163 541.813L592.335 545.177C592.335 545.177 587.626 549.191 589.644 552.554C591.662 555.918 605.767 555.918 605.767 555.918H616.508L641.309 567.376L613.75 563.34C613.75 563.34 596.304 559.999 595.631 564.686C594.958 569.372 600.318 573.431 603.681 573.431C607.784 573.954 611.83 574.855 615.768 576.122L632.564 582.154L607.045 578.118C607.045 578.118 605.7 582.154 607.718 584.172C609.736 586.19 634.627 595.586 634.627 595.586C634.627 595.586 658.127 605.004 661.536 607.695C664.944 610.386 670.954 617.763 682.368 616.418C693.781 615.073 693.019 592.2 690.328 588.164Z" fill="white" stroke="#263238" stroke-miterlimit="10"/>
<path d="M632.564 582.109L641.309 585.473" stroke="#263238" stroke-miterlimit="10"/>
<path d="M637.946 546.522L647.342 549.863" stroke="#263238" stroke-miterlimit="10"/>
<path d="M415.005 815.768V828.191H549.438V837.228H470.348V844H579.935V832.699H561.861V825.926H636.421V808.974" fill="#263238"/>
<path d="M415.005 815.768V828.191H549.438V837.228H470.348V844H579.935V832.699H561.861V825.926H636.421V808.974" stroke="#263238" stroke-miterlimit="10"/>
<path d="M456.804 839.493H430.814V845.144H456.804V839.493Z" fill="#263238" stroke="#263238" stroke-miterlimit="10"/>
<path d="M446.601 868.129H428.841V881.135H446.601V868.129Z" stroke="#263238" stroke-miterlimit="10"/>
<path d="M497.481 882.323H485.641V889.431H497.481V882.323Z" stroke="#263238" stroke-miterlimit="10"/>
<path d="M549.528 878.78H530.602V884.7H549.528V878.78Z" stroke="#263238" stroke-miterlimit="10"/>
<path d="M518.784 911.923H506.944V919.031H518.784V911.923Z" stroke="#263238" stroke-miterlimit="10"/>
<path d="M564.91 892.975H556.636V897.706H564.91V892.975Z" stroke="#263238" stroke-miterlimit="10"/>
<path d="M611.059 865.774H572.019V877.614H611.059V865.774Z" stroke="#263238" stroke-miterlimit="10"/>
<path d="M478.533 909.546H459.607V919.009H478.533V909.546Z" stroke="#263238" stroke-miterlimit="10"/>
<path d="M524.681 942.666H515.218V947.398H524.681V942.666Z" stroke="#263238" stroke-miterlimit="10"/>
<path d="M513.29 854.181H474.877V860.953H513.29V854.181Z" fill="#263238" stroke="#263238" stroke-miterlimit="10"/>
<path d="M570.898 849.651H547.173V853.037H570.898V849.651Z" fill="#263238" stroke="#263238" stroke-miterlimit="10"/>
<path d="M611.575 831.577H587.85V836.107H611.575V831.577Z" fill="#263238" stroke="#263238" stroke-miterlimit="10"/>
<path d="M411.619 831.577H400.317V842.879H411.619V831.577Z" fill="#263238" stroke="#263238" stroke-miterlimit="10"/>
<path d="M635.3 839.493H623.998V850.795H635.3V839.493Z" fill="#263238" stroke="#263238" stroke-miterlimit="10"/>
<path d="M385.943 937.15L408.861 1006.89" stroke="#263238" stroke-miterlimit="10"/>
<path d="M379.643 917.955L383.073 928.404" stroke="#263238" stroke-miterlimit="10"/>
<path d="M307.953 699.679L376.099 907.169" stroke="#263238" stroke-miterlimit="10"/>
<path d="M446.982 930.647L458.194 988.95" stroke="#263238" stroke-miterlimit="10"/>
<path d="M718.269 761.233L637.587 1006.89" stroke="#263238" stroke-miterlimit="10"/>
<path d="M725.893 738.069L721.027 752.869" stroke="#263238" stroke-miterlimit="10"/>
<path d="M738.495 699.679L731.409 721.251" stroke="#263238" stroke-miterlimit="10"/>
<path d="M599.466 930.647L588.254 988.95" stroke="#263238" stroke-miterlimit="10"/>
</svg>
